<svg width="200" height="64" viewBox="0 0 200 64" fill="none" xmlns="http://www.w3.org/2000/svg">
<g clip-path="url(#clip0_15273_5682)">
<path d="M134 21.6777C134 24.031 135.25 25.5584 137.333 25.5586C139.625 25.5586 140.958 23.7421 140.958 21.3887V13.585H146.125V29.5635H140.958V27.7881C139.833 29.0681 138.208 29.9766 136 29.9766C131.792 29.8939 128.833 27.1272 128.833 22.0898V13.585H134V21.6777ZM117.625 13.1719C123.042 13.1719 126.375 16.8879 126.375 21.5537C126.375 26.1782 123.042 29.8945 117.625 29.8945C112.167 29.8532 108.875 26.1782 108.875 21.5537C108.875 16.8879 112.208 13.1719 117.625 13.1719ZM180.292 13.1299C183.958 13.13 185.791 14.2865 186.458 14.6582L184.708 17.9199C183.666 17.2594 182.125 16.7637 180.458 16.7637C179.625 16.7637 178.333 16.9706 178.333 17.8789C178.334 19.9432 187.167 19.7786 187.167 24.8984C187.167 27.995 184.25 29.8525 179.875 29.8525C175.583 29.8525 173.75 28.5312 173 27.9531L175 24.8984C175.917 25.6416 177.75 26.2197 179.958 26.2197C181.083 26.2197 182.042 25.7237 182.042 24.9805C182.042 22.7098 173.292 23.1637 173.292 18.0029C173.292 14.9887 176.042 13.1299 180.292 13.1299ZM195.292 13.543H199V17.5488H195.292V23.8242C195.292 25.2279 195.667 25.9715 196.833 25.9717C197.458 25.9717 198.167 25.8474 198.792 25.5996L199.75 29.1924C198.5 29.6878 196.917 29.8525 195.667 29.8525C191.292 29.8525 190.125 27.3752 190.125 23.8242V17.5488H187.917V13.543H190.125V9.45508H195.292V13.543ZM110.25 11.5205H103.25V29.5225H97.833V11.5205H90.875V7.18457H110.25V11.5205ZM170.292 29.5225H165.125V13.543H170.292V29.5225ZM159.958 13.2129C160.875 13.2129 161.792 13.3368 163 13.791L161.542 18.126C160.917 17.8369 160.167 17.6309 159.375 17.6309C157.25 17.6309 154.75 18.9109 154.75 22.5029V29.4814H149.583V13.543H154.75V15.4834C155.958 14.0797 157.708 13.213 159.958 13.2129ZM117.583 17.2598C115.458 17.2187 114 19.159 114 21.5537C114 23.8658 115.5 25.8474 117.583 25.8477C119.708 25.8477 121.208 23.9072 121.208 21.5537C121.208 19.2002 119.75 17.2598 117.583 17.2598ZM167.708 6.97852C169.291 6.97852 170.667 8.09274 170.667 9.29004C170.667 10.6113 169.333 11.6436 167.708 11.6436C166.041 11.6434 164.75 10.57 164.75 9.29004C164.75 8.05154 166.042 6.97865 167.708 6.97852Z" fill="white"/>
<path d="M122.75 40.6709C127.042 40.6709 130.667 44.2631 130.667 49.0527C130.667 53.8424 126.917 57.3105 122.625 57.3105C120.458 57.3105 118.708 56.4442 117.5 55.123V63.3809H112.333V41.043H117.542V42.7764C118.75 41.4966 120.542 40.6709 122.75 40.6709ZM143.708 40.6709C148 40.6709 151.625 44.2631 151.625 49.0527C151.625 53.8424 147.875 57.3105 143.583 57.3105C141.417 57.3104 139.666 56.4442 138.458 55.123V63.3809H133.333V41.043H138.5V42.7764C139.708 41.4965 141.5 40.671 143.708 40.6709ZM99.5 40.6709C101.708 40.6709 103.5 41.4555 104.708 42.7354V40.96H109.875V56.9805H104.708V55.123C103.5 56.4441 101.749 57.3105 99.583 57.3105C95.3331 57.2691 91.583 53.801 91.583 49.0527C91.5831 44.3044 95.2084 40.6709 99.5 40.6709ZM100.625 44.7178C98.25 44.7178 96.583 46.7408 96.583 49.0117C96.5831 51.3239 98.25 53.3057 100.625 53.3057C103.042 53.3057 104.708 51.3239 104.708 49.0117C104.666 46.7408 103 44.7178 100.625 44.7178ZM121.625 44.7178C119.25 44.7178 117.584 46.6995 117.542 49.0117C117.542 51.3239 119.25 53.3057 121.625 53.3057C124 53.3057 125.667 51.3239 125.667 49.0117C125.667 46.7408 124 44.7178 121.625 44.7178ZM142.583 44.7178C140.208 44.718 138.542 46.6996 138.5 49.0117C138.5 51.3238 140.208 53.3054 142.583 53.3057C144.958 53.3057 146.625 51.3239 146.625 49.0117C146.625 46.7408 144.958 44.7178 142.583 44.7178Z" fill="white"/>
<path d="M78.2084 15.4013C78.2084 20.5213 75.5833 25.0632 71.625 27.7058C71.375 27.871 71.125 28.0361 70.8333 28.2013C68.5833 29.5226 66 30.2658 63.2084 30.2658C62.4584 30.2658 61.75 30.2245 61.0417 30.1007C59.3333 30.1007 57.625 30.1419 55.9167 30.1007C54.8334 30.1007 54.4584 30.3484 54.4584 31.5045C54.5 37.6155 54.625 43.7264 54.4167 49.7961C54.1667 57.1871 48.25 63.0503 40.75 63.7523C33.625 64.4129 26.625 59.4581 25 52.3974C23.7083 46.8232 25.2083 42.0336 29.5 38.1523C30.5417 37.2439 31.6667 36.4181 32.6667 35.5097C33.4583 34.8077 33.8334 35.0968 34.25 35.8813C34.75 36.831 35.3334 37.7806 35.9167 38.689C38 42.0748 41.2917 42.1574 43.3333 38.7303C46.125 34.1058 48.9167 29.4813 51.6667 24.8568C52.2083 23.9484 52.75 23.0813 53.25 22.1729C53.5 21.7187 53.75 21.2645 53.9167 20.769C54.9583 18.1264 53.6667 15.9381 50.8333 15.649C49.9583 15.5664 49.0417 15.5665 48.1667 15.5665C47.7917 15.5665 47.375 15.5665 47 15.5665C41.375 15.5665 35.75 15.5665 30.0834 15.5665C29.7084 15.5665 29.3333 15.5665 28.9167 15.5665C25.0833 15.7316 23.6667 18.209 25.5 21.5536C26.2084 22.8748 27.0417 24.1548 27.8333 25.4348C28.0833 25.8064 28.3333 26.1781 27.75 26.4671C22.7917 28.8206 17.7917 31.0916 12.125 29.729C5.95835 28.2426 1.12502 23.7419 0.291683 16.929C-0.458317 10.4052 3.00001 4.37678 9.00001 1.69291C10.7083 0.908392 12.5417 0.412905 14.5 0.412905C18.5 0.454196 22.5 0.412905 26.5417 0.412905C30.5417 0.412905 34.5417 0.412905 38.5833 0.412905C43.625 0.412905 48.625 0.495486 53.6667 0.412905C53.75 0.412905 53.875 0.412905 53.9583 0.412905L62.4583 0.371613C62.7083 0.371613 62.9167 0.371613 63.1667 0.371613C71.4583 0.536774 78.2084 7.18451 78.2084 15.4013Z" fill="white"/>
</g>
<defs>
<clipPath id="clip0_15273_5682">
<rect width="200" height="64" fill="white"/>
</clipPath>
</defs>
</svg>
