<svg width="100" height="32" viewBox="0 0 100 32" fill="none" xmlns="http://www.w3.org/2000/svg">
<g clip-path="url(#clip0_15286_6713)">
<path d="M67 10.8389C67.0001 12.0156 67.6254 12.7793 68.667 12.7793C69.8126 12.7791 70.4794 11.8709 70.4795 10.6943V6.79199H73.0625V14.7822H70.4795V13.8945C69.917 14.5345 69.1041 14.9883 68 14.9883C65.8958 14.947 64.417 13.5636 64.417 11.0449V6.79199H67V10.8389ZM58.8125 6.58594C61.5207 6.58594 63.1873 8.44366 63.1875 10.7764C63.1875 13.0886 61.5208 14.9473 58.8125 14.9473C56.0833 14.9266 54.4375 13.0886 54.4375 10.7764C54.4377 8.44366 56.1043 6.58594 58.8125 6.58594ZM90.1455 6.56543C91.9788 6.56543 92.8962 7.1433 93.2295 7.3291L92.3545 8.95996C91.8337 8.62968 91.0627 8.3819 90.2295 8.38184C89.8128 8.38184 89.167 8.48526 89.167 8.93945C89.1673 9.97161 93.583 9.8893 93.583 12.4492C93.5829 13.9975 92.1249 14.9268 89.9375 14.9268C87.7917 14.9268 86.875 14.2656 86.5 13.9766L87.5 12.4492C87.9584 12.8208 88.8754 13.1094 89.9795 13.1094C90.5419 13.1093 91.0205 12.8618 91.0205 12.4902C91.0203 11.3549 86.6455 11.5816 86.6455 9.00098C86.6457 7.49414 88.0208 6.56552 90.1455 6.56543ZM97.6455 6.77148H99.5V8.77441H97.6455V11.9121C97.6455 12.614 97.8337 12.9854 98.417 12.9854C98.7293 12.9853 99.0832 12.9236 99.3955 12.7998L99.875 14.5957C99.25 14.8434 98.458 14.9268 97.833 14.9268C95.6458 14.9266 95.0625 13.6875 95.0625 11.9121V8.77441H93.958V6.77148H95.0625V4.72754H97.6455V6.77148ZM55.125 5.75977H51.625V14.7617H48.917V5.75977H45.4375V3.5918H55.125V5.75977ZM85.1455 14.7617H82.5625V6.77148H85.1455V14.7617ZM79.9795 6.60645C80.4377 6.60647 80.896 6.66846 81.5 6.89551L80.7705 9.06348C80.458 8.91901 80.0833 8.81543 79.6875 8.81543C78.625 8.81544 77.375 9.45584 77.375 11.252V14.7402H74.792V6.77148H77.375V7.74219C77.9792 7.04025 78.8545 6.60645 79.9795 6.60645ZM58.792 8.62988C57.7296 8.60924 57.0002 9.57914 57 10.7764C57 11.9325 57.7503 12.9238 58.792 12.9238C59.8543 12.9236 60.6045 11.953 60.6045 10.7764C60.6043 9.5999 59.875 8.63007 58.792 8.62988ZM83.8545 3.48926C84.646 3.48941 85.333 4.04688 85.333 4.64551C85.3328 5.3059 84.6667 5.82213 83.8545 5.82227C83.0213 5.82227 82.3752 5.28536 82.375 4.64551C82.375 4.02615 83.0212 3.48926 83.8545 3.48926Z" fill="#401CE2"/>
<path d="M61.375 20.3359C63.5208 20.3359 65.333 22.1316 65.333 24.5264C65.333 26.9212 63.4583 28.6553 61.3125 28.6553C60.2292 28.6553 59.3542 28.2221 58.75 27.5615V31.6904H56.167V20.5215H58.7705V21.3887C59.3747 20.7487 60.2708 20.3359 61.375 20.3359ZM71.8545 20.3359C74.0002 20.3361 75.8125 22.1317 75.8125 24.5264C75.8125 26.9211 73.9377 28.6551 71.792 28.6553C70.7088 28.6553 69.8336 28.222 69.2295 27.5615V31.6904H66.667V20.5215H69.25V21.3887C69.8542 20.7487 70.7503 20.3359 71.8545 20.3359ZM49.75 20.3359C50.8542 20.3359 51.7503 20.7282 52.3545 21.3682V20.4805H54.9375V28.4902H52.3545V27.5615C51.7504 28.2221 50.8752 28.6552 49.792 28.6553C47.667 28.6346 45.792 26.9006 45.792 24.5264C45.792 22.1522 47.6042 20.3359 49.75 20.3359ZM50.3125 22.3584C49.125 22.3584 48.292 23.3704 48.292 24.5059C48.292 25.662 49.125 26.6533 50.3125 26.6533C51.5208 26.6533 52.3545 25.662 52.3545 24.5059C52.3337 23.3704 51.5 22.3584 50.3125 22.3584ZM60.8125 22.3584C59.625 22.3584 58.7913 23.3497 58.7705 24.5059C58.7705 25.662 59.625 26.6533 60.8125 26.6533C62 26.6533 62.833 25.662 62.833 24.5059C62.833 23.3704 62 22.3584 60.8125 22.3584ZM71.292 22.3584C70.1045 22.3584 69.2708 23.3497 69.25 24.5059C69.25 25.662 70.1045 26.6533 71.292 26.6533C72.4793 26.6532 73.3125 25.6619 73.3125 24.5059C73.3125 23.3705 72.4793 22.3586 71.292 22.3584Z" fill="#401CE2"/>
<path d="M39.1042 7.70065C39.1042 10.2607 37.7917 12.5316 35.8125 13.8529C35.6875 13.9355 35.5625 14.0181 35.4167 14.1007C34.2917 14.7613 33 15.1329 31.6042 15.1329C31.2292 15.1329 30.875 15.1123 30.5208 15.0503C29.6667 15.0503 28.8125 15.071 27.9583 15.0503C27.4167 15.0503 27.2292 15.1742 27.2292 15.7523C27.25 18.8077 27.3125 21.8632 27.2083 24.8981C27.0833 28.5935 24.125 31.5252 20.375 31.8761C16.8125 32.2065 13.3125 29.729 12.5 26.1987C11.8542 23.4116 12.6042 21.0168 14.75 19.0761C15.2708 18.6219 15.8333 18.209 16.3333 17.7548C16.7292 17.4039 16.9167 17.5484 17.125 17.9407C17.375 18.4155 17.6667 18.8903 17.9583 19.3445C19 21.0374 20.6458 21.0787 21.6667 19.3652C23.0625 17.0529 24.4583 14.7407 25.8333 12.4284C26.1042 11.9742 26.375 11.5407 26.625 11.0865C26.75 10.8594 26.875 10.6323 26.9583 10.3845C27.4792 9.06323 26.8333 7.96904 25.4167 7.82452C24.9792 7.78323 24.5208 7.78324 24.0833 7.78324C23.8958 7.78324 23.6875 7.78324 23.5 7.78324C20.6875 7.78324 17.875 7.78324 15.0417 7.78324C14.8542 7.78324 14.6667 7.78324 14.4583 7.78324C12.5417 7.86582 11.8333 9.10453 12.75 10.7768C13.1042 11.4374 13.5208 12.0774 13.9167 12.7174C14.0417 12.9032 14.1667 13.089 13.875 13.2336C11.3958 14.4103 8.89582 15.5458 6.06249 14.8645C2.97915 14.1213 0.562489 11.871 0.145822 8.46452C-0.229178 5.20259 1.49999 2.1884 4.49999 0.846462C5.35415 0.454204 6.27082 0.20646 7.24998 0.20646C9.24998 0.227105 11.25 0.20646 13.2708 0.20646C15.2708 0.20646 17.2708 0.20646 19.2917 0.20646C21.8125 0.20646 24.3125 0.247751 26.8333 0.20646C26.875 0.20646 26.9375 0.20646 26.9792 0.20646L31.2292 0.185814C31.3542 0.185814 31.4583 0.185814 31.5833 0.185814C35.7292 0.268395 39.1042 3.59226 39.1042 7.70065Z" fill="#401CE2"/>
</g>
<defs>
<clipPath id="clip0_15286_6713">
<rect width="100" height="32" fill="white"/>
</clipPath>
</defs>
</svg>
