<svg width="36" height="36" viewBox="0 0 36 36" fill="none" xmlns="http://www.w3.org/2000/svg">
<path d="M24 3C29.0001 2.99992 33 7 33 12V24C33 29 29.0001 33 24 33H12C7.00012 33 2.99985 29 3.00001 24C3.00017 19 2.99995 17 3.00001 12C3.00007 7 7.00012 3.00001 12 3H24ZM13.2822 9.20801C12.7333 8.93054 12.085 8.93047 11.5361 9.20801C11.26 9.34766 11.0024 9.60499 10.4883 10.1191L10.3359 10.2715C9.82357 10.7839 9.56774 11.0404 9.37208 11.3887C9.15502 11.7751 8.99877 12.3751 9.00001 12.8184C9.0012 13.2178 9.07846 13.4912 9.23341 14.0371C10.0664 16.9718 11.638 19.7415 13.9483 22.0518C16.2585 24.362 19.0282 25.9336 21.9629 26.7666C22.5088 26.9215 22.7822 26.9988 23.1817 27C23.6249 27.0012 24.2249 26.845 24.6113 26.6279C24.9596 26.4323 25.2162 26.1764 25.7285 25.6641L25.8809 25.5117C26.395 24.9976 26.6524 24.74 26.792 24.4639C27.0695 23.915 27.0695 23.2667 26.792 22.7178C26.6524 22.4417 26.395 22.1841 25.8809 21.6699L25.6924 21.4814C25.3542 21.1432 25.1847 20.9738 25.0147 20.8633C24.3734 20.4465 23.5465 20.4464 22.9053 20.8633C22.7353 20.9738 22.5666 21.1434 22.2285 21.4814C22.1182 21.5918 22.0625 21.6471 21.9981 21.6934C21.7685 21.8577 21.4352 21.9148 21.1641 21.8359C21.0877 21.8137 21.0269 21.7845 20.9063 21.7266C19.5039 21.0532 18.1898 20.1351 17.0274 18.9727C15.8649 17.8102 14.9468 16.4961 14.2734 15.0938C14.2155 14.9731 14.1863 14.9123 14.1641 14.8359C14.0852 14.5648 14.1423 14.2315 14.3067 14.002C14.3529 13.9375 14.4082 13.8818 14.5186 13.7715C14.8566 13.4334 15.0262 13.2647 15.1367 13.0947C15.5536 12.4535 15.5535 11.6266 15.1367 10.9854C15.0262 10.8153 14.8568 10.6458 14.5186 10.3076L14.3301 10.1191C13.8159 9.60499 13.5583 9.34766 13.2822 9.20801Z" fill="url(#paint0_linear_15302_6228)"/>
<defs>
<linearGradient id="paint0_linear_15302_6228" x1="33" y1="18" x2="3" y2="18" gradientUnits="userSpaceOnUse">
<stop stop-color="#6E9AF7"/>
<stop offset="1" stop-color="#1C60F2"/>
</linearGradient>
</defs>
</svg>
