<svg width="24" height="24" viewBox="0 0 24 24" fill="none" xmlns="http://www.w3.org/2000/svg">
<path d="M2.29318 2.29307C2.68371 1.90268 3.31774 1.90259 3.70822 2.29307L7.3479 5.93274C7.40291 5.97662 7.45341 6.02769 7.49927 6.08411L17.9007 16.4856C17.9635 16.5341 18.0205 16.5918 18.0716 16.6565L21.7083 20.2932C22.0983 20.6836 22.0983 21.3169 21.7083 21.7073C21.3179 22.0977 20.6838 22.0976 20.2933 21.7073L16.4056 17.8195C15.7757 18.1679 15.0961 18.4586 14.3694 18.6653C14.3548 18.6694 14.3402 18.6738 14.3255 18.6779C14.2453 18.7003 14.1647 18.7222 14.0833 18.7424C14.0681 18.7462 14.0527 18.7494 14.0374 18.7531C13.9555 18.773 13.8734 18.7931 13.7903 18.8108C13.7783 18.8133 13.7662 18.8151 13.7542 18.8176C13.6072 18.8482 13.4584 18.8745 13.3079 18.8977C13.2663 18.9041 13.2248 18.9114 13.1829 18.9172C13.1285 18.9248 13.0737 18.9312 13.0188 18.9377C12.9618 18.9446 12.9045 18.9506 12.847 18.9563C12.788 18.9621 12.7287 18.9673 12.6692 18.9719C12.6096 18.9766 12.5497 18.9802 12.4895 18.9836C12.4421 18.9863 12.3947 18.9895 12.347 18.9914C12.2323 18.9961 12.1168 19.0002 12.0003 19.0002L11.5266 18.9875C11.2143 18.9703 10.909 18.9358 10.6106 18.8869C10.4617 18.8626 10.3146 18.8346 10.1692 18.803C9.8779 18.7396 9.59367 18.6622 9.31666 18.5725C8.62455 18.3482 7.97755 18.0469 7.3772 17.6965C6.77673 17.346 6.22311 16.9462 5.718 16.5246C5.61693 16.4403 5.51732 16.3556 5.42015 16.2697C5.06347 15.9545 4.73405 15.6296 4.43089 15.3078C3.76104 14.5967 3.22479 13.8955 2.82736 13.3234C2.67007 13.097 2.53308 12.8919 2.42013 12.7131C2.352 12.6052 2.30073 12.5241 2.26193 12.4494C2.22329 12.375 2.19696 12.3066 2.17794 12.2238C2.15644 12.13 2.15054 11.9951 2.16134 11.881C2.16492 11.8432 2.17081 11.8076 2.17794 11.7765C2.21605 11.6104 2.28412 11.5026 2.42013 11.2873C2.49323 11.1715 2.57544 11.0441 2.6672 10.9074L2.71017 10.8429C2.75547 10.7761 2.80519 10.7087 2.8547 10.6379C2.90594 10.5646 2.95816 10.4884 3.01388 10.4113C3.07045 10.333 3.13047 10.2538 3.19162 10.172C3.26328 10.0763 3.33832 9.97871 3.41623 9.87906C3.64601 9.58501 3.90052 9.27365 4.18381 8.95913C4.19674 8.94479 4.20984 8.93053 4.22288 8.91616C4.28066 8.85246 4.3397 8.78874 4.39964 8.72476C4.43082 8.69148 4.4626 8.65846 4.49436 8.62515C4.56092 8.5553 4.62839 8.48505 4.69749 8.41518C4.70477 8.40783 4.71265 8.40105 4.71995 8.3937L4.90355 8.2101C5.21433 7.90755 5.5498 7.60904 5.90746 7.32143L2.29318 3.70714C1.90293 3.31667 1.90293 2.68355 2.29318 2.29307ZM12.4739 5.01282C15.4396 5.17582 17.7811 6.84771 19.4007 8.51479L19.6507 8.77749C20.5444 9.74007 21.1945 10.6747 21.5814 11.2873C21.6492 11.3947 21.6999 11.4755 21.7386 11.55C21.7775 11.6247 21.8045 11.6934 21.8236 11.7765C21.845 11.8701 21.8499 12.0044 21.8392 12.1183C21.8356 12.1565 21.8308 12.1925 21.8236 12.2238C21.7855 12.3899 21.7173 12.4978 21.5814 12.7131C21.5144 12.8191 21.4385 12.9341 21.3558 13.0578C21.3299 13.0966 21.3022 13.1356 21.2748 13.176C21.2192 13.2576 21.1608 13.3425 21.099 13.4299C21.0459 13.5051 20.9906 13.5824 20.933 13.6613C20.9113 13.6908 20.8888 13.7202 20.8665 13.7502C20.673 14.0117 20.4573 14.2922 20.2162 14.5803L20.2132 14.5773C19.8975 14.9533 19.5433 15.3459 19.1488 15.7336L18.0716 14.6564C18.0205 14.5919 17.9634 14.5341 17.9007 14.4855L14.9671 11.5519C14.7726 10.2536 13.7459 9.22655 12.4475 9.03238L8.96607 5.55091C9.52771 5.34337 10.1204 5.18534 10.7434 5.0929L10.7425 5.09192C10.876 5.07218 11.0114 5.05666 11.1477 5.04309C11.1792 5.03994 11.2108 5.03711 11.2425 5.0343C11.341 5.02559 11.4403 5.01816 11.5403 5.01282C11.5666 5.0114 11.593 5.01008 11.6194 5.00891C11.7453 5.00335 11.8722 5.00012 12.0003 5.00012C12.1599 5.00013 12.3178 5.00423 12.4739 5.01282ZM9.28639 10.7277C9.25637 10.7916 9.22906 10.8568 9.20338 10.923C9.14891 11.0644 9.10234 11.2098 9.06959 11.3605C9.03936 11.4972 9.01967 11.6374 9.00904 11.7804C9.00379 11.853 9.00025 11.9263 9.00025 12.0002C9.00031 13.4499 10.0288 14.6589 11.3958 14.9387C11.4934 14.9587 11.5928 14.9743 11.6936 14.9846C11.7441 14.9897 11.7948 14.9937 11.846 14.9963C11.897 14.9989 11.9486 15.0002 12.0003 15.0002C12.0553 15.0002 12.11 14.9983 12.1643 14.9953C12.4641 14.9792 12.7508 14.9154 13.0208 14.8176C13.107 14.7861 13.1913 14.7509 13.2737 14.7121C13.2791 14.7096 13.284 14.7059 13.2893 14.7033L9.29518 10.7091C9.29222 10.7153 9.2893 10.7215 9.28639 10.7277Z" fill="#9FA8B5"/>
</svg>
