<svg width="33" height="32" viewBox="0 0 33 32" fill="none" xmlns="http://www.w3.org/2000/svg">
<path d="M12.2877 7.75C12.7019 7.75 13.0377 7.41421 13.0377 7C13.0377 6.58579 12.7019 6.25 12.2877 6.25V7V7.75ZM6.58322 12.129C6.58322 12.5432 6.91901 12.879 7.33322 12.879C7.74743 12.879 8.08322 12.5432 8.08322 12.129H7.33322H6.58322ZM20.3799 6.25C19.9657 6.25 19.6299 6.58579 19.6299 7C19.6299 7.41421 19.9657 7.75 20.3799 7.75V7V6.25ZM24.583 12.129C24.583 12.5432 24.9188 12.879 25.333 12.879C25.7472 12.879 26.083 12.5432 26.083 12.129H25.333H24.583ZM12.2877 25.75C12.7019 25.75 13.0377 25.4142 13.0377 25C13.0377 24.5858 12.7019 24.25 12.2877 24.25V25V25.75ZM8.08322 19.871C8.08322 19.4568 7.74743 19.121 7.33322 19.121C6.91901 19.121 6.58322 19.4568 6.58322 19.871H7.33322H8.08322ZM20.3799 24.25C19.9657 24.25 19.6299 24.5858 19.6299 25C19.6299 25.4142 19.9657 25.75 20.3799 25.75V25V24.25ZM26.083 19.871C26.083 19.4568 25.7472 19.121 25.333 19.121C24.9188 19.121 24.583 19.4568 24.583 19.871H25.333H26.083ZM20.8865 13.0967C20.8865 12.6825 20.5507 12.3467 20.1365 12.3467C19.7223 12.3467 19.3865 12.6825 19.3865 13.0967H20.1365H20.8865ZM19.3865 14.5484C19.3865 14.9626 19.7223 15.2984 20.1365 15.2984C20.5507 15.2984 20.8865 14.9626 20.8865 14.5484H20.1365H19.3865ZM13.3413 13.0967C13.3413 12.6825 13.0055 12.3467 12.5913 12.3467C12.1771 12.3467 11.8413 12.6825 11.8413 13.0967H12.5913H13.3413ZM11.8413 14.5484C11.8413 14.9626 12.1771 15.2984 12.5913 15.2984C13.0055 15.2984 13.3413 14.9626 13.3413 14.5484H12.5913H11.8413ZM17.333 13.0967C17.333 12.6825 16.9972 12.3467 16.583 12.3467C16.1688 12.3467 15.833 12.6825 15.833 13.0967H16.583H17.333ZM15.4822 16.2208C15.0697 16.1835 14.705 16.4877 14.6677 16.9002C14.6304 17.3127 14.9346 17.6774 15.3471 17.7147L15.4147 16.9678L15.4822 16.2208ZM14.0415 18.4205C13.7749 18.1035 13.3018 18.0627 12.9848 18.3293C12.6678 18.5959 12.6269 19.069 12.8935 19.386L13.4675 18.9033L14.0415 18.4205ZM19.883 19.386C20.1496 19.069 20.1087 18.5959 19.7917 18.3293C19.4748 18.0627 19.0016 18.1035 18.735 18.4205L19.309 18.9033L19.883 19.386ZM7.33322 9.56448H8.08322V9.5644L7.33322 9.56448ZM20.3799 7V7.75H23.3859V7V6.25H20.3799V7ZM25.333 8.93552H24.583V12.129H25.333H26.083V8.93552H25.333ZM23.3859 7V7.75C24.0513 7.75 24.583 8.28501 24.583 8.93552H25.333H26.083C26.083 7.44812 24.8712 6.25 23.3859 6.25V7ZM12.2877 25V24.25H9.28037V25V25.75H12.2877V25ZM7.33322 23.0645H8.08322V19.871H7.33322H6.58322V23.0645H7.33322ZM20.3799 25V25.75H23.3859V25V24.25H20.3799V25ZM25.333 23.0645H26.083V19.871H25.333H24.583V23.0645H25.333ZM23.3859 25V25.75C24.8712 25.75 26.083 24.5519 26.083 23.0645H25.333H24.583C24.583 23.715 24.0513 24.25 23.3859 24.25V25ZM9.28037 25V24.25C8.61496 24.25 8.08322 23.715 8.08322 23.0645H7.33322H6.58322C6.58322 24.5519 7.79502 25.75 9.28037 25.75V25ZM20.1365 13.0967H19.3865V14.5484H20.1365H20.8865V13.0967H20.1365ZM12.5913 13.0967H11.8413V14.5484H12.5913H13.3413V13.0967H12.5913ZM16.583 13.0967C15.833 13.0967 15.833 13.0967 15.833 13.0967C15.833 13.0967 15.833 13.0968 15.833 13.0968C15.833 13.0968 15.833 13.0969 15.833 13.0969C15.833 13.097 15.833 13.097 15.833 13.0971C15.833 13.0971 15.833 13.0972 15.833 13.0973C15.833 13.0973 15.833 13.0974 15.833 13.0975C15.833 13.0976 15.833 13.0977 15.833 13.0978C15.833 13.0979 15.833 13.098 15.833 13.0981C15.833 13.0982 15.833 13.0984 15.833 13.0985C15.833 13.0986 15.833 13.0988 15.833 13.0989C15.833 13.0991 15.833 13.0992 15.833 13.0994C15.833 13.0995 15.833 13.0997 15.833 13.0999C15.833 13.1 15.833 13.1002 15.833 13.1004C15.833 13.1006 15.833 13.1008 15.833 13.101C15.833 13.1012 15.833 13.1014 15.833 13.1016C15.833 13.1019 15.833 13.1021 15.833 13.1023C15.833 13.1025 15.833 13.1028 15.833 13.103C15.833 13.1033 15.833 13.1035 15.833 13.1038C15.833 13.104 15.833 13.1043 15.833 13.1046C15.833 13.1049 15.833 13.1051 15.833 13.1054C15.833 13.1057 15.833 13.106 15.833 13.1063C15.833 13.1066 15.833 13.1069 15.833 13.1072C15.833 13.1076 15.833 13.1079 15.833 13.1082C15.833 13.1085 15.833 13.1089 15.833 13.1092C15.833 13.1096 15.833 13.1099 15.833 13.1103C15.833 13.1106 15.833 13.111 15.833 13.1114C15.833 13.1117 15.833 13.1121 15.833 13.1125C15.833 13.1129 15.833 13.1133 15.833 13.1137C15.833 13.1141 15.833 13.1145 15.833 13.1149C15.833 13.1153 15.833 13.1157 15.833 13.1162C15.833 13.1166 15.833 13.117 15.833 13.1175C15.833 13.1179 15.833 13.1184 15.833 13.1188C15.833 13.1193 15.833 13.1197 15.833 13.1202C15.833 13.1207 15.833 13.1211 15.833 13.1216C15.833 13.1221 15.833 13.1226 15.833 13.1231C15.833 13.1236 15.833 13.1241 15.833 13.1246C15.833 13.1251 15.833 13.1256 15.833 13.1261C15.833 13.1266 15.833 13.1272 15.833 13.1277C15.833 13.1282 15.833 13.1288 15.833 13.1293C15.833 13.1299 15.833 13.1304 15.833 13.131C15.833 13.1316 15.833 13.1321 15.833 13.1327C15.833 13.1333 15.833 13.1339 15.833 13.1345C15.833 13.135 15.833 13.1356 15.833 13.1362C15.833 13.1368 15.833 13.1374 15.833 13.1381C15.833 13.1387 15.833 13.1393 15.833 13.1399C15.833 13.1406 15.833 13.1412 15.833 13.1418C15.833 13.1425 15.833 13.1431 15.833 13.1438C15.833 13.1444 15.833 13.1451 15.833 13.1458C15.833 13.1464 15.833 13.1471 15.833 13.1478C15.833 13.1485 15.833 13.1491 15.833 13.1498C15.833 13.1505 15.833 13.1512 15.833 13.1519C15.833 13.1526 15.833 13.1534 15.833 13.1541C15.833 13.1548 15.833 13.1555 15.833 13.1562C15.833 13.157 15.833 13.1577 15.833 13.1585C15.833 13.1592 15.833 13.16 15.833 13.1607C15.833 13.1615 15.833 13.1622 15.833 13.163C15.833 13.1638 15.833 13.1646 15.833 13.1653C15.833 13.1661 15.833 13.1669 15.833 13.1677C15.833 13.1685 15.833 13.1693 15.833 13.1701C15.833 13.1709 15.833 13.1717 15.833 13.1726C15.833 13.1734 15.833 13.1742 15.833 13.175C15.833 13.1759 15.833 13.1767 15.833 13.1776C15.833 13.1784 15.833 13.1793 15.833 13.1801C15.833 13.181 15.833 13.1818 15.833 13.1827C15.833 13.1836 15.833 13.1845 15.833 13.1853C15.833 13.1862 15.833 13.1871 15.833 13.188C15.833 13.1889 15.833 13.1898 15.833 13.1907C15.833 13.1916 15.833 13.1925 15.833 13.1935C15.833 13.1944 15.833 13.1953 15.833 13.1962C15.833 13.1972 15.833 13.1981 15.833 13.1991C15.833 13.2 15.833 13.201 15.833 13.2019C15.833 13.2029 15.833 13.2038 15.833 13.2048C15.833 13.2058 15.833 13.2068 15.833 13.2077C15.833 13.2087 15.833 13.2097 15.833 13.2107C15.833 13.2117 15.833 13.2127 15.833 13.2137C15.833 13.2147 15.833 13.2157 15.833 13.2167C15.833 13.2178 15.833 13.2188 15.833 13.2198C15.833 13.2208 15.833 13.2219 15.833 13.2229C15.833 13.224 15.833 13.225 15.833 13.2261C15.833 13.2271 15.833 13.2282 15.833 13.2292C15.833 13.2303 15.833 13.2314 15.833 13.2325C15.833 13.2335 15.833 13.2346 15.833 13.2357C15.833 13.2368 15.833 13.2379 15.833 13.239C15.833 13.2401 15.833 13.2412 15.833 13.2423C15.833 13.2434 15.833 13.2446 15.833 13.2457C15.833 13.2468 15.833 13.2479 15.833 13.2491C15.833 13.2502 15.833 13.2514 15.833 13.2525C15.833 13.2536 15.833 13.2548 15.833 13.256C15.833 13.2571 15.833 13.2583 15.833 13.2595C15.833 13.2606 15.833 13.2618 15.833 13.263C15.833 13.2642 15.833 13.2654 15.833 13.2666C15.833 13.2678 15.833 13.269 15.833 13.2702C15.833 13.2714 15.833 13.2726 15.833 13.2738C15.833 13.275 15.833 13.2762 15.833 13.2775C15.833 13.2787 15.833 13.2799 15.833 13.2812C15.833 13.2824 15.833 13.2837 15.833 13.2849C15.833 13.2862 15.833 13.2874 15.833 13.2887C15.833 13.2899 15.833 13.2912 15.833 13.2925C15.833 13.2938 15.833 13.295 15.833 13.2963C15.833 13.2976 15.833 13.2989 15.833 13.3002C15.833 13.3015 15.833 13.3028 15.833 13.3041C15.833 13.3054 15.833 13.3067 15.833 13.308C15.833 13.3094 15.833 13.3107 15.833 13.312C15.833 13.3133 15.833 13.3147 15.833 13.316C15.833 13.3174 15.833 13.3187 15.833 13.3201C15.833 13.3214 15.833 13.3228 15.833 13.3241C15.833 13.3255 15.833 13.3269 15.833 13.3282C15.833 13.3296 15.833 13.331 15.833 13.3324C15.833 13.3338 15.833 13.3351 15.833 13.3365C15.833 13.3379 15.833 13.3393 15.833 13.3407C15.833 13.3421 15.833 13.3436 15.833 13.345C15.833 13.3464 15.833 13.3478 15.833 13.3492C15.833 13.3507 15.833 13.3521 15.833 13.3535C15.833 13.355 15.833 13.3564 15.833 13.3579C15.833 13.3593 15.833 13.3608 15.833 13.3622C15.833 13.3637 15.833 13.3652 15.833 13.3666C15.833 13.3681 15.833 13.3696 15.833 13.3711C15.833 13.3725 15.833 13.374 15.833 13.3755C15.833 13.377 15.833 13.3785 15.833 13.38C15.833 13.3815 15.833 13.383 15.833 13.3845C15.833 13.386 15.833 13.3876 15.833 13.3891C15.833 13.3906 15.833 13.3921 15.833 13.3937C15.833 13.3952 15.833 13.3967 15.833 13.3983C15.833 13.3998 15.833 13.4014 15.833 13.4029C15.833 13.4045 15.833 13.406 15.833 13.4076C15.833 13.4092 15.833 13.4107 15.833 13.4123C15.833 13.4139 15.833 13.4155 15.833 13.4171C15.833 13.4186 15.833 13.4202 15.833 13.4218C15.833 13.4234 15.833 13.425 15.833 13.4266C15.833 13.4282 15.833 13.4298 15.833 13.4315C15.833 13.4331 15.833 13.4347 15.833 13.4363C15.833 13.4379 15.833 13.4396 15.833 13.4412C15.833 13.4428 15.833 13.4445 15.833 13.4461C15.833 13.4478 15.833 13.4494 15.833 13.4511C15.833 13.4527 15.833 13.4544 15.833 13.4561C15.833 13.4577 15.833 13.4594 15.833 13.4611C15.833 13.4627 15.833 13.4644 15.833 13.4661C15.833 13.4678 15.833 13.4695 15.833 13.4712C15.833 13.4729 15.833 13.4746 15.833 13.4763C15.833 13.478 15.833 13.4797 15.833 13.4814C15.833 13.4831 15.833 13.4848 15.833 13.4866C15.833 13.4883 15.833 13.49 15.833 13.4917C15.833 13.4935 15.833 13.4952 15.833 13.497C15.833 13.4987 15.833 13.5004 15.833 13.5022C15.833 13.5039 15.833 13.5057 15.833 13.5075C15.833 13.5092 15.833 13.511 15.833 13.5128C15.833 13.5145 15.833 13.5163 15.833 13.5181C15.833 13.5199 15.833 13.5217 15.833 13.5235C15.833 13.5252 15.833 13.527 15.833 13.5288C15.833 13.5306 15.833 13.5324 15.833 13.5343C15.833 13.5361 15.833 13.5379 15.833 13.5397C15.833 13.5415 15.833 13.5433 15.833 13.5452C15.833 13.547 15.833 13.5488 15.833 13.5507C15.833 13.5525 15.833 13.5543 15.833 13.5562C15.833 13.558 15.833 13.5599 15.833 13.5617C15.833 13.5636 15.833 13.5655 15.833 13.5673C15.833 13.5692 15.833 13.5711 15.833 13.5729C15.833 13.5748 15.833 13.5767 15.833 13.5786C15.833 13.5805 15.833 13.5823 15.833 13.5842C15.833 13.5861 15.833 13.588 15.833 13.5899C15.833 13.5918 15.833 13.5937 15.833 13.5956C15.833 13.5976 15.833 13.5995 15.833 13.6014C15.833 13.6033 15.833 13.6052 15.833 13.6072C15.833 13.6091 15.833 13.611 15.833 13.613C15.833 13.6149 15.833 13.6168 15.833 13.6188C15.833 13.6207 15.833 13.6227 15.833 13.6246C15.833 13.6266 15.833 13.6285 15.833 13.6305C15.833 13.6325 15.833 13.6344 15.833 13.6364C15.833 13.6384 15.833 13.6404 15.833 13.6423C15.833 13.6443 15.833 13.6463 15.833 13.6483C15.833 13.6503 15.833 13.6523 15.833 13.6543C15.833 13.6563 15.833 13.6583 15.833 13.6603C15.833 13.6623 15.833 13.6643 15.833 13.6663C15.833 13.6683 15.833 13.6704 15.833 13.6724C15.833 13.6744 15.833 13.6764 15.833 13.6785C15.833 13.6805 15.833 13.6825 15.833 13.6846C15.833 13.6866 15.833 13.6887 15.833 13.6907C15.833 13.6928 15.833 13.6948 15.833 13.6969C15.833 13.6989 15.833 13.701 15.833 13.703C15.833 13.7051 15.833 13.7072 15.833 13.7093C15.833 13.7113 15.833 13.7134 15.833 13.7155C15.833 13.7176 15.833 13.7197 15.833 13.7217C15.833 13.7238 15.833 13.7259 15.833 13.728C15.833 13.7301 15.833 13.7322 15.833 13.7343C15.833 13.7364 15.833 13.7386 15.833 13.7407C15.833 13.7428 15.833 13.7449 15.833 13.747C15.833 13.7492 15.833 13.7513 15.833 13.7534C15.833 13.7555 15.833 13.7577 15.833 13.7598C15.833 13.762 15.833 13.7641 15.833 13.7662C15.833 13.7684 15.833 13.7705 15.833 13.7727C15.833 13.7749 15.833 13.777 15.833 13.7792C15.833 13.7813 15.833 13.7835 15.833 13.7857C15.833 13.7878 15.833 13.79 15.833 13.7922C15.833 13.7944 15.833 13.7966 15.833 13.7987C15.833 13.8009 15.833 13.8031 15.833 13.8053C15.833 13.8075 15.833 13.8097 15.833 13.8119C15.833 13.8141 15.833 13.8163 15.833 13.8185C15.833 13.8207 15.833 13.823 15.833 13.8252C15.833 13.8274 15.833 13.8296 15.833 13.8318C15.833 13.8341 15.833 13.8363 15.833 13.8385C15.833 13.8408 15.833 13.843 15.833 13.8452C15.833 13.8475 15.833 13.8497 15.833 13.852C15.833 13.8542 15.833 13.8565 15.833 13.8587C15.833 13.861 15.833 13.8632 15.833 13.8655C15.833 13.8677 15.833 13.87 15.833 13.8723C15.833 13.8746 15.833 13.8768 15.833 13.8791C15.833 13.8814 15.833 13.8837 15.833 13.8859C15.833 13.8882 15.833 13.8905 15.833 13.8928C15.833 13.8951 15.833 13.8974 15.833 13.8997C15.833 13.902 15.833 13.9043 15.833 13.9066C15.833 13.9089 15.833 13.9112 15.833 13.9135C15.833 13.9158 15.833 13.9182 15.833 13.9205C15.833 13.9228 15.833 13.9251 15.833 13.9275C15.833 13.9298 15.833 13.9321 15.833 13.9344C15.833 13.9368 15.833 13.9391 15.833 13.9415C15.833 13.9438 15.833 13.9461 15.833 13.9485C15.833 13.9508 15.833 13.9532 15.833 13.9556C15.833 13.9579 15.833 13.9603 15.833 13.9626C15.833 13.965 15.833 13.9674 15.833 13.9697C15.833 13.9721 15.833 13.9745 15.833 13.9768C15.833 13.9792 15.833 13.9816 15.833 13.984C15.833 13.9864 15.833 13.9888 15.833 13.9911C15.833 13.9935 15.833 13.9959 15.833 13.9983C15.833 14.0007 15.833 14.0031 15.833 14.0055C15.833 14.0079 15.833 14.0103 15.833 14.0127C15.833 14.0152 15.833 14.0176 15.833 14.02C15.833 14.0224 15.833 14.0248 15.833 14.0272C15.833 14.0297 15.833 14.0321 15.833 14.0345C15.833 14.037 15.833 14.0394 15.833 14.0418C15.833 14.0443 15.833 14.0467 15.833 14.0491C15.833 14.0516 15.833 14.054 15.833 14.0565C15.833 14.0589 15.833 14.0614 15.833 14.0638C15.833 14.0663 15.833 14.0688 15.833 14.0712C15.833 14.0737 15.833 14.0761 15.833 14.0786C15.833 14.0811 15.833 14.0836 15.833 14.086C15.833 14.0885 15.833 14.091 15.833 14.0935C15.833 14.0959 15.833 14.0984 15.833 14.1009C15.833 14.1034 15.833 14.1059 15.833 14.1084C15.833 14.1109 15.833 14.1134 15.833 14.1159C15.833 14.1184 15.833 14.1209 15.833 14.1234C15.833 14.1259 15.833 14.1284 15.833 14.1309C15.833 14.1334 15.833 14.1359 15.833 14.1385C15.833 14.141 15.833 14.1435 15.833 14.146C15.833 14.1485 15.833 14.1511 15.833 14.1536C15.833 14.1561 15.833 14.1587 15.833 14.1612C15.833 14.1637 15.833 14.1663 15.833 14.1688C15.833 14.1714 15.833 14.1739 15.833 14.1764C15.833 14.179 15.833 14.1815 15.833 14.1841C15.833 14.1866 15.833 14.1892 15.833 14.1918C15.833 14.1943 15.833 14.1969 15.833 14.1995C15.833 14.202 15.833 14.2046 15.833 14.2072C15.833 14.2097 15.833 14.2123 15.833 14.2149C15.833 14.2175 15.833 14.22 15.833 14.2226C15.833 14.2252 15.833 14.2278 15.833 14.2304C15.833 14.233 15.833 14.2355 15.833 14.2381C15.833 14.2407 15.833 14.2433 15.833 14.2459C15.833 14.2485 15.833 14.2511 15.833 14.2537C15.833 14.2563 15.833 14.2589 15.833 14.2616C15.833 14.2642 15.833 14.2668 15.833 14.2694C15.833 14.272 15.833 14.2746 15.833 14.2773C15.833 14.2799 15.833 14.2825 15.833 14.2851C15.833 14.2877 15.833 14.2904 15.833 14.293C15.833 14.2956 15.833 14.2983 15.833 14.3009C15.833 14.3035 15.833 14.3062 15.833 14.3088C15.833 14.3115 15.833 14.3141 15.833 14.3168C15.833 14.3194 15.833 14.3221 15.833 14.3247C15.833 14.3274 15.833 14.33 15.833 14.3327C15.833 14.3353 15.833 14.338 15.833 14.3407C15.833 14.3433 15.833 14.346 15.833 14.3487C15.833 14.3513 15.833 14.354 15.833 14.3567C15.833 14.3593 15.833 14.362 15.833 14.3647C15.833 14.3674 15.833 14.3701 15.833 14.3727C15.833 14.3754 15.833 14.3781 15.833 14.3808C15.833 14.3835 15.833 14.3862 15.833 14.3889C15.833 14.3916 15.833 14.3942 15.833 14.3969C15.833 14.3996 15.833 14.4023 15.833 14.405C15.833 14.4077 15.833 14.4105 15.833 14.4132C15.833 14.4159 15.833 14.4186 15.833 14.4213C15.833 14.424 15.833 14.4267 15.833 14.4294C15.833 14.4322 15.833 14.4349 15.833 14.4376C15.833 14.4403 15.833 14.443 15.833 14.4458C15.833 14.4485 15.833 14.4512 15.833 14.4539C15.833 14.4567 15.833 14.4594 15.833 14.4621C15.833 14.4649 15.833 14.4676 15.833 14.4704C15.833 14.4731 15.833 14.4758 15.833 14.4786C15.833 14.4813 15.833 14.4841 15.833 14.4868C15.833 14.4896 15.833 14.4923 15.833 14.4951C15.833 14.4978 15.833 14.5006 15.833 14.5033C15.833 14.5061 15.833 14.5089 15.833 14.5116C15.833 14.5144 15.833 14.5172 15.833 14.5199C15.833 14.5227 15.833 14.5255 15.833 14.5282C15.833 14.531 15.833 14.5338 15.833 14.5365C15.833 14.5393 15.833 14.5421 15.833 14.5449C15.833 14.5477 15.833 14.5504 15.833 14.5532C15.833 14.556 15.833 14.5588 15.833 14.5616C15.833 14.5644 15.833 14.5672 15.833 14.5699C15.833 14.5727 15.833 14.5755 15.833 14.5783C15.833 14.5811 15.833 14.5839 15.833 14.5867C15.833 14.5895 15.833 14.5923 15.833 14.5951C15.833 14.5979 15.833 14.6007 15.833 14.6035C15.833 14.6063 15.833 14.6092 15.833 14.612C15.833 14.6148 15.833 14.6176 15.833 14.6204C15.833 14.6232 15.833 14.626 15.833 14.6289C15.833 14.6317 15.833 14.6345 15.833 14.6373C15.833 14.6402 15.833 14.643 15.833 14.6458C15.833 14.6486 15.833 14.6515 15.833 14.6543C15.833 14.6571 15.833 14.66 15.833 14.6628C15.833 14.6656 15.833 14.6685 15.833 14.6713C15.833 14.6741 15.833 14.677 15.833 14.6798C15.833 14.6827 15.833 14.6855 15.833 14.6883C15.833 14.6912 15.833 14.694 15.833 14.6969C15.833 14.6997 15.833 14.7026 15.833 14.7054C15.833 14.7083 15.833 14.7111 15.833 14.714C15.833 14.7169 15.833 14.7197 15.833 14.7226C15.833 14.7254 15.833 14.7283 15.833 14.7312C15.833 14.734 15.833 14.7369 15.833 14.7398C15.833 14.7426 15.833 14.7455 15.833 14.7484C15.833 14.7512 15.833 14.7541 15.833 14.757C15.833 14.7598 15.833 14.7627 15.833 14.7656C15.833 14.7685 15.833 14.7714 15.833 14.7742C15.833 14.7771 15.833 14.78 15.833 14.7829C15.833 14.7858 15.833 14.7886 15.833 14.7915C15.833 14.7944 15.833 14.7973 15.833 14.8002C15.833 14.8031 15.833 14.806 15.833 14.8089C15.833 14.8118 15.833 14.8146 15.833 14.8175C15.833 14.8204 15.833 14.8233 15.833 14.8262C15.833 14.8291 15.833 14.832 15.833 14.8349C15.833 14.8378 15.833 14.8407 15.833 14.8436C15.833 14.8465 15.833 14.8495 15.833 14.8524C15.833 14.8553 15.833 14.8582 15.833 14.8611C15.833 14.864 15.833 14.8669 15.833 14.8698C15.833 14.8727 15.833 14.8756 15.833 14.8786C15.833 14.8815 15.833 14.8844 15.833 14.8873C15.833 14.8902 15.833 14.8932 15.833 14.8961C15.833 14.899 15.833 14.9019 15.833 14.9048C15.833 14.9078 15.833 14.9107 15.833 14.9136C15.833 14.9165 15.833 14.9195 15.833 14.9224C15.833 14.9253 15.833 14.9283 15.833 14.9312C15.833 14.9341 15.833 14.9371 15.833 14.94C15.833 14.9429 15.833 14.9459 15.833 14.9488C15.833 14.9517 15.833 14.9547 15.833 14.9576C15.833 14.9606 15.833 14.9635 15.833 14.9664C15.833 14.9694 15.833 14.9723 15.833 14.9753C15.833 14.9782 15.833 14.9812 15.833 14.9841C15.833 14.987 15.833 14.99 15.833 14.9929C15.833 14.9959 15.833 14.9988 15.833 15.0018C15.833 15.0047 15.833 15.0077 15.833 15.0107C15.833 15.0136 15.833 15.0166 15.833 15.0195C15.833 15.0225 15.833 15.0254 15.833 15.0284C15.833 15.0313 15.833 15.0343 15.833 15.0373C15.833 15.0402 15.833 15.0432 15.833 15.0461C15.833 15.0491 15.833 15.0521 15.833 15.055C15.833 15.058 15.833 15.061 15.833 15.0639C15.833 15.0669 15.833 15.0699 15.833 15.0728C15.833 15.0758 15.833 15.0788 15.833 15.0817C15.833 15.0847 15.833 15.0877 15.833 15.0907C15.833 15.0936 15.833 15.0966 15.833 15.0996C15.833 15.1026 15.833 15.1055 15.833 15.1085C15.833 15.1115 15.833 15.1145 15.833 15.1174C15.833 15.1204 15.833 15.1234 15.833 15.1264C15.833 15.1294 15.833 15.1323 15.833 15.1353C15.833 15.1383 15.833 15.1413 15.833 15.1443C15.833 15.1472 15.833 15.1502 15.833 15.1532C15.833 15.1562 15.833 15.1592 15.833 15.1622C15.833 15.1652 15.833 15.1681 15.833 15.1711C15.833 15.1741 15.833 15.1771 15.833 15.1801C15.833 15.1831 15.833 15.1861 15.833 15.1891C15.833 15.1921 15.833 15.1951 15.833 15.1981C15.833 15.201 15.833 15.204 15.833 15.207C15.833 15.21 15.833 15.213 15.833 15.216C15.833 15.219 15.833 15.222 15.833 15.225C15.833 15.228 15.833 15.231 15.833 15.234C15.833 15.237 15.833 15.24 15.833 15.243C15.833 15.246 15.833 15.249 15.833 15.252C15.833 15.255 15.833 15.258 15.833 15.261C15.833 15.264 15.833 15.267 15.833 15.27C15.833 15.273 15.833 15.276 15.833 15.279C15.833 15.282 15.833 15.285 15.833 15.2881C15.833 15.2911 15.833 15.2941 15.833 15.2971C15.833 15.3001 15.833 15.3031 15.833 15.3061C15.833 15.3091 15.833 15.3121 15.833 15.3151C15.833 15.3181 15.833 15.3211 15.833 15.3242C15.833 15.3272 15.833 15.3302 15.833 15.3332C15.833 15.3362 15.833 15.3392 15.833 15.3422C15.833 15.3452 15.833 15.3482 15.833 15.3513C15.833 15.3543 15.833 15.3573 15.833 15.3603C15.833 15.3633 15.833 15.3663 15.833 15.3693C15.833 15.3724 15.833 15.3754 15.833 15.3784C15.833 15.3814 15.833 15.3844 15.833 15.3874C15.833 15.3905 15.833 15.3935 15.833 15.3965C15.833 15.3995 15.833 15.4025 15.833 15.4055C15.833 15.4086 15.833 15.4116 15.833 15.4146C15.833 15.4176 15.833 15.4206 15.833 15.4237C15.833 15.4267 15.833 15.4297 15.833 15.4327C15.833 15.4357 15.833 15.4388 15.833 15.4418C15.833 15.4448 15.833 15.4478 15.833 15.4508C15.833 15.4539 15.833 15.4569 15.833 15.4599C15.833 15.4629 15.833 15.4659 15.833 15.469C15.833 15.472 15.833 15.475 15.833 15.478C15.833 15.4811 15.833 15.4841 15.833 15.4871C15.833 15.4901 15.833 15.4931 15.833 15.4962C15.833 15.4992 15.833 15.5022 15.833 15.5052C15.833 15.5083 15.833 15.5113 15.833 15.5143C15.833 15.5173 15.833 15.5204 15.833 15.5234C15.833 15.5264 15.833 15.5294 15.833 15.5325C15.833 15.5355 15.833 15.5385 15.833 15.5415C15.833 15.5445 15.833 15.5476 15.833 15.5506C15.833 15.5536 15.833 15.5566 15.833 15.5597C15.833 15.5627 15.833 15.5657 15.833 15.5687C15.833 15.5718 15.833 15.5748 15.833 15.5778C15.833 15.5808 15.833 15.5839 15.833 15.5869C15.833 15.5899 15.833 15.5929 15.833 15.596C15.833 15.599 15.833 15.602 15.833 15.605C15.833 15.6081 15.833 15.6111 15.833 15.6141C15.833 15.6171 15.833 15.6202 15.833 15.6232C15.833 15.6262 15.833 15.6292 15.833 15.6322C15.833 15.6353 15.833 15.6383 15.833 15.6413C15.833 15.6443 15.833 15.6474 15.833 15.6504C15.833 15.6534 15.833 15.6564 15.833 15.6595C15.833 15.6625 15.833 15.6655 15.833 15.6685C15.833 15.6715 15.833 15.6746 15.833 15.6776C15.833 15.6806 15.833 15.6836 15.833 15.6867C15.833 15.6897 15.833 15.6927 15.833 15.6957C15.833 15.6987 15.833 15.7018 15.833 15.7048C15.833 15.7078 15.833 15.7108 15.833 15.7138C15.833 15.7169 15.833 15.7199 15.833 15.7229C15.833 15.7259 15.833 15.7289 15.833 15.732C15.833 15.735 15.833 15.738 15.833 15.741C15.833 15.744 15.833 15.747 15.833 15.7501C15.833 15.7531 15.833 15.7561 15.833 15.7591C15.833 15.7621 15.833 15.7651 15.833 15.7682C15.833 15.7712 15.833 15.7742 15.833 15.7772C15.833 15.7802 15.833 15.7832 15.833 15.7863C15.833 15.7893 15.833 15.7923 15.833 15.7953C15.833 15.7983 15.833 15.8013 15.833 15.8043C15.833 15.8074 15.833 15.8104 15.833 15.8134C15.833 15.8164 15.833 15.8194 15.833 15.8224C15.833 15.8254 15.833 15.8284 15.833 15.8314C15.833 15.8344 15.833 15.8375 15.833 15.8405C15.833 15.8435 15.833 15.8465 15.833 15.8495C15.833 15.8525 15.833 15.8555 15.833 15.8585C15.833 15.8615 15.833 15.8645 15.833 15.8675C15.833 15.8705 15.833 15.8735 15.833 15.8765C15.833 15.8795 15.833 15.8826 15.833 15.8856C15.833 15.8886 15.833 15.8916 15.833 15.8946C15.833 15.8976 15.833 15.9006 15.833 15.9036C15.833 15.9066 15.833 15.9096 15.833 15.9126C15.833 15.9156 15.833 15.9186 15.833 15.9216C15.833 15.9246 15.833 15.9276 15.833 15.9305C15.833 15.9335 15.833 15.9365 15.833 15.9395C15.833 15.9425 15.833 15.9455 15.833 15.9485C15.833 15.9515 15.833 15.9545 15.833 15.9575C15.833 15.9605 15.833 15.9635 15.833 15.9665C15.833 15.9695 15.833 15.9724 15.833 15.9754C15.833 15.9784 15.833 15.9814 15.833 15.9844C15.833 15.9874 15.833 15.9904 15.833 15.9934C15.833 15.9963 15.833 15.9993 15.833 16.0023C15.833 16.0053 15.833 16.0083 15.833 16.0113C15.833 16.0142 15.833 16.0172 15.833 16.0202C15.833 16.0232 15.833 16.0262 15.833 16.0291C15.833 16.0321 15.833 16.0351 15.833 16.0381C15.833 16.0411 15.833 16.044 15.833 16.047C15.833 16.05 15.833 16.053 15.833 16.0559C15.833 16.0589 15.833 16.0619 15.833 16.0648C15.833 16.0678 15.833 16.0708 15.833 16.0738C15.833 16.0767 15.833 16.0797 15.833 16.0827C15.833 16.0856 15.833 16.0886 15.833 16.0916C15.833 16.0945 15.833 16.0975 15.833 16.1004C15.833 16.1034 15.833 16.1064 15.833 16.1093C15.833 16.1123 15.833 16.1152 15.833 16.1182C15.833 16.1212 15.833 16.1241 15.833 16.1271C15.833 16.13 15.833 16.133 15.833 16.1359C15.833 16.1389 15.833 16.1419 15.833 16.1448C15.833 16.1478 15.833 16.1507 15.833 16.1537C15.833 16.1566 15.833 16.1596 15.833 16.1625C15.833 16.1654 15.833 16.1684 15.833 16.1713C15.833 16.1743 15.833 16.1772 15.833 16.1802C15.833 16.1831 15.833 16.1861 15.833 16.189C15.833 16.1919 15.833 16.1949 15.833 16.1978C15.833 16.2007 15.833 16.2037 15.833 16.2066C15.833 16.2096 15.833 16.2125 15.833 16.2154C15.833 16.2184 15.833 16.2213 15.833 16.2242C15.833 16.2271 15.833 16.2301 15.833 16.233C15.833 16.2359 15.833 16.2389 15.833 16.2418C15.833 16.2447 15.833 16.2476 15.833 16.2505C15.833 16.2535 15.833 16.2564 15.833 16.2593C15.833 16.2622 15.833 16.2651 15.833 16.2681C15.833 16.271 15.833 16.2739 15.833 16.2768C15.833 16.2797 15.833 16.2826 15.833 16.2855C15.833 16.2885 15.833 16.2914 15.833 16.2943C15.833 16.2972 15.833 16.3001 15.833 16.303C15.833 16.3059 15.833 16.3088 15.833 16.3117C15.833 16.3146 15.833 16.3175 15.833 16.3204C15.833 16.3233 15.833 16.3262 15.833 16.3291C15.833 16.332 15.833 16.3349 15.833 16.3378C15.833 16.3407 15.833 16.3436 15.833 16.3464C15.833 16.3493 15.833 16.3522 15.833 16.3551C15.833 16.358 15.833 16.3609 15.833 16.3638C15.833 16.3666 15.833 16.3695 15.833 16.3724C15.833 16.3753 15.833 16.3782 15.833 16.381C15.833 16.3839 15.833 16.3868 15.833 16.3897C15.833 16.3925 15.833 16.3954 15.833 16.3983C15.833 16.4012 15.833 16.404 15.833 16.4069C15.833 16.4098 15.833 16.4126 15.833 16.4155C15.833 16.4184 15.833 16.4212 15.833 16.4241C15.833 16.4269 15.833 16.4298 15.833 16.4327C15.833 16.4355 15.833 16.4384 15.833 16.4412C15.833 16.4441 15.833 16.4469 15.833 16.4498C15.833 16.4526 15.833 16.4555 15.833 16.4583C15.833 16.4612 15.833 16.464 15.833 16.4668C15.833 16.4697 15.833 16.4725 15.833 16.4754C15.833 16.4782 15.833 16.481 15.833 16.4839H16.583H17.333C17.333 16.481 17.333 16.4782 17.333 16.4754C17.333 16.4725 17.333 16.4697 17.333 16.4668C17.333 16.464 17.333 16.4612 17.333 16.4583C17.333 16.4555 17.333 16.4526 17.333 16.4498C17.333 16.4469 17.333 16.4441 17.333 16.4412C17.333 16.4384 17.333 16.4355 17.333 16.4327C17.333 16.4298 17.333 16.4269 17.333 16.4241C17.333 16.4212 17.333 16.4184 17.333 16.4155C17.333 16.4126 17.333 16.4098 17.333 16.4069C17.333 16.404 17.333 16.4012 17.333 16.3983C17.333 16.3954 17.333 16.3925 17.333 16.3897C17.333 16.3868 17.333 16.3839 17.333 16.381C17.333 16.3782 17.333 16.3753 17.333 16.3724C17.333 16.3695 17.333 16.3666 17.333 16.3638C17.333 16.3609 17.333 16.358 17.333 16.3551C17.333 16.3522 17.333 16.3493 17.333 16.3464C17.333 16.3436 17.333 16.3407 17.333 16.3378C17.333 16.3349 17.333 16.332 17.333 16.3291C17.333 16.3262 17.333 16.3233 17.333 16.3204C17.333 16.3175 17.333 16.3146 17.333 16.3117C17.333 16.3088 17.333 16.3059 17.333 16.303C17.333 16.3001 17.333 16.2972 17.333 16.2943C17.333 16.2914 17.333 16.2885 17.333 16.2855C17.333 16.2826 17.333 16.2797 17.333 16.2768C17.333 16.2739 17.333 16.271 17.333 16.2681C17.333 16.2651 17.333 16.2622 17.333 16.2593C17.333 16.2564 17.333 16.2535 17.333 16.2505C17.333 16.2476 17.333 16.2447 17.333 16.2418C17.333 16.2389 17.333 16.2359 17.333 16.233C17.333 16.2301 17.333 16.2271 17.333 16.2242C17.333 16.2213 17.333 16.2184 17.333 16.2154C17.333 16.2125 17.333 16.2096 17.333 16.2066C17.333 16.2037 17.333 16.2007 17.333 16.1978C17.333 16.1949 17.333 16.1919 17.333 16.189C17.333 16.1861 17.333 16.1831 17.333 16.1802C17.333 16.1772 17.333 16.1743 17.333 16.1713C17.333 16.1684 17.333 16.1654 17.333 16.1625C17.333 16.1596 17.333 16.1566 17.333 16.1537C17.333 16.1507 17.333 16.1478 17.333 16.1448C17.333 16.1419 17.333 16.1389 17.333 16.1359C17.333 16.133 17.333 16.13 17.333 16.1271C17.333 16.1241 17.333 16.1212 17.333 16.1182C17.333 16.1152 17.333 16.1123 17.333 16.1093C17.333 16.1064 17.333 16.1034 17.333 16.1004C17.333 16.0975 17.333 16.0945 17.333 16.0916C17.333 16.0886 17.333 16.0856 17.333 16.0827C17.333 16.0797 17.333 16.0767 17.333 16.0738C17.333 16.0708 17.333 16.0678 17.333 16.0648C17.333 16.0619 17.333 16.0589 17.333 16.0559C17.333 16.053 17.333 16.05 17.333 16.047C17.333 16.044 17.333 16.0411 17.333 16.0381C17.333 16.0351 17.333 16.0321 17.333 16.0291C17.333 16.0262 17.333 16.0232 17.333 16.0202C17.333 16.0172 17.333 16.0142 17.333 16.0113C17.333 16.0083 17.333 16.0053 17.333 16.0023C17.333 15.9993 17.333 15.9963 17.333 15.9934C17.333 15.9904 17.333 15.9874 17.333 15.9844C17.333 15.9814 17.333 15.9784 17.333 15.9754C17.333 15.9724 17.333 15.9695 17.333 15.9665C17.333 15.9635 17.333 15.9605 17.333 15.9575C17.333 15.9545 17.333 15.9515 17.333 15.9485C17.333 15.9455 17.333 15.9425 17.333 15.9395C17.333 15.9365 17.333 15.9335 17.333 15.9305C17.333 15.9276 17.333 15.9246 17.333 15.9216C17.333 15.9186 17.333 15.9156 17.333 15.9126C17.333 15.9096 17.333 15.9066 17.333 15.9036C17.333 15.9006 17.333 15.8976 17.333 15.8946C17.333 15.8916 17.333 15.8886 17.333 15.8856C17.333 15.8826 17.333 15.8795 17.333 15.8765C17.333 15.8735 17.333 15.8705 17.333 15.8675C17.333 15.8645 17.333 15.8615 17.333 15.8585C17.333 15.8555 17.333 15.8525 17.333 15.8495C17.333 15.8465 17.333 15.8435 17.333 15.8405C17.333 15.8375 17.333 15.8344 17.333 15.8314C17.333 15.8284 17.333 15.8254 17.333 15.8224C17.333 15.8194 17.333 15.8164 17.333 15.8134C17.333 15.8104 17.333 15.8074 17.333 15.8043C17.333 15.8013 17.333 15.7983 17.333 15.7953C17.333 15.7923 17.333 15.7893 17.333 15.7863C17.333 15.7832 17.333 15.7802 17.333 15.7772C17.333 15.7742 17.333 15.7712 17.333 15.7682C17.333 15.7651 17.333 15.7621 17.333 15.7591C17.333 15.7561 17.333 15.7531 17.333 15.7501C17.333 15.747 17.333 15.744 17.333 15.741C17.333 15.738 17.333 15.735 17.333 15.732C17.333 15.7289 17.333 15.7259 17.333 15.7229C17.333 15.7199 17.333 15.7169 17.333 15.7138C17.333 15.7108 17.333 15.7078 17.333 15.7048C17.333 15.7018 17.333 15.6987 17.333 15.6957C17.333 15.6927 17.333 15.6897 17.333 15.6867C17.333 15.6836 17.333 15.6806 17.333 15.6776C17.333 15.6746 17.333 15.6715 17.333 15.6685C17.333 15.6655 17.333 15.6625 17.333 15.6595C17.333 15.6564 17.333 15.6534 17.333 15.6504C17.333 15.6474 17.333 15.6443 17.333 15.6413C17.333 15.6383 17.333 15.6353 17.333 15.6322C17.333 15.6292 17.333 15.6262 17.333 15.6232C17.333 15.6202 17.333 15.6171 17.333 15.6141C17.333 15.6111 17.333 15.6081 17.333 15.605C17.333 15.602 17.333 15.599 17.333 15.596C17.333 15.5929 17.333 15.5899 17.333 15.5869C17.333 15.5839 17.333 15.5808 17.333 15.5778C17.333 15.5748 17.333 15.5718 17.333 15.5687C17.333 15.5657 17.333 15.5627 17.333 15.5597C17.333 15.5566 17.333 15.5536 17.333 15.5506C17.333 15.5476 17.333 15.5445 17.333 15.5415C17.333 15.5385 17.333 15.5355 17.333 15.5325C17.333 15.5294 17.333 15.5264 17.333 15.5234C17.333 15.5204 17.333 15.5173 17.333 15.5143C17.333 15.5113 17.333 15.5083 17.333 15.5052C17.333 15.5022 17.333 15.4992 17.333 15.4962C17.333 15.4931 17.333 15.4901 17.333 15.4871C17.333 15.4841 17.333 15.4811 17.333 15.478C17.333 15.475 17.333 15.472 17.333 15.469C17.333 15.4659 17.333 15.4629 17.333 15.4599C17.333 15.4569 17.333 15.4539 17.333 15.4508C17.333 15.4478 17.333 15.4448 17.333 15.4418C17.333 15.4388 17.333 15.4357 17.333 15.4327C17.333 15.4297 17.333 15.4267 17.333 15.4237C17.333 15.4206 17.333 15.4176 17.333 15.4146C17.333 15.4116 17.333 15.4086 17.333 15.4055C17.333 15.4025 17.333 15.3995 17.333 15.3965C17.333 15.3935 17.333 15.3905 17.333 15.3874C17.333 15.3844 17.333 15.3814 17.333 15.3784C17.333 15.3754 17.333 15.3724 17.333 15.3693C17.333 15.3663 17.333 15.3633 17.333 15.3603C17.333 15.3573 17.333 15.3543 17.333 15.3513C17.333 15.3482 17.333 15.3452 17.333 15.3422C17.333 15.3392 17.333 15.3362 17.333 15.3332C17.333 15.3302 17.333 15.3272 17.333 15.3242C17.333 15.3211 17.333 15.3181 17.333 15.3151C17.333 15.3121 17.333 15.3091 17.333 15.3061C17.333 15.3031 17.333 15.3001 17.333 15.2971C17.333 15.2941 17.333 15.2911 17.333 15.2881C17.333 15.285 17.333 15.282 17.333 15.279C17.333 15.276 17.333 15.273 17.333 15.27C17.333 15.267 17.333 15.264 17.333 15.261C17.333 15.258 17.333 15.255 17.333 15.252C17.333 15.249 17.333 15.246 17.333 15.243C17.333 15.24 17.333 15.237 17.333 15.234C17.333 15.231 17.333 15.228 17.333 15.225C17.333 15.222 17.333 15.219 17.333 15.216C17.333 15.213 17.333 15.21 17.333 15.207C17.333 15.204 17.333 15.201 17.333 15.1981C17.333 15.1951 17.333 15.1921 17.333 15.1891C17.333 15.1861 17.333 15.1831 17.333 15.1801C17.333 15.1771 17.333 15.1741 17.333 15.1711C17.333 15.1681 17.333 15.1652 17.333 15.1622C17.333 15.1592 17.333 15.1562 17.333 15.1532C17.333 15.1502 17.333 15.1472 17.333 15.1443C17.333 15.1413 17.333 15.1383 17.333 15.1353C17.333 15.1323 17.333 15.1294 17.333 15.1264C17.333 15.1234 17.333 15.1204 17.333 15.1174C17.333 15.1145 17.333 15.1115 17.333 15.1085C17.333 15.1055 17.333 15.1026 17.333 15.0996C17.333 15.0966 17.333 15.0936 17.333 15.0907C17.333 15.0877 17.333 15.0847 17.333 15.0817C17.333 15.0788 17.333 15.0758 17.333 15.0728C17.333 15.0699 17.333 15.0669 17.333 15.0639C17.333 15.061 17.333 15.058 17.333 15.055C17.333 15.0521 17.333 15.0491 17.333 15.0461C17.333 15.0432 17.333 15.0402 17.333 15.0373C17.333 15.0343 17.333 15.0313 17.333 15.0284C17.333 15.0254 17.333 15.0225 17.333 15.0195C17.333 15.0166 17.333 15.0136 17.333 15.0107C17.333 15.0077 17.333 15.0047 17.333 15.0018C17.333 14.9988 17.333 14.9959 17.333 14.9929C17.333 14.99 17.333 14.987 17.333 14.9841C17.333 14.9812 17.333 14.9782 17.333 14.9753C17.333 14.9723 17.333 14.9694 17.333 14.9664C17.333 14.9635 17.333 14.9606 17.333 14.9576C17.333 14.9547 17.333 14.9517 17.333 14.9488C17.333 14.9459 17.333 14.9429 17.333 14.94C17.333 14.9371 17.333 14.9341 17.333 14.9312C17.333 14.9283 17.333 14.9253 17.333 14.9224C17.333 14.9195 17.333 14.9165 17.333 14.9136C17.333 14.9107 17.333 14.9078 17.333 14.9048C17.333 14.9019 17.333 14.899 17.333 14.8961C17.333 14.8932 17.333 14.8902 17.333 14.8873C17.333 14.8844 17.333 14.8815 17.333 14.8786C17.333 14.8756 17.333 14.8727 17.333 14.8698C17.333 14.8669 17.333 14.864 17.333 14.8611C17.333 14.8582 17.333 14.8553 17.333 14.8524C17.333 14.8495 17.333 14.8465 17.333 14.8436C17.333 14.8407 17.333 14.8378 17.333 14.8349C17.333 14.832 17.333 14.8291 17.333 14.8262C17.333 14.8233 17.333 14.8204 17.333 14.8175C17.333 14.8146 17.333 14.8118 17.333 14.8089C17.333 14.806 17.333 14.8031 17.333 14.8002C17.333 14.7973 17.333 14.7944 17.333 14.7915C17.333 14.7886 17.333 14.7858 17.333 14.7829C17.333 14.78 17.333 14.7771 17.333 14.7742C17.333 14.7714 17.333 14.7685 17.333 14.7656C17.333 14.7627 17.333 14.7598 17.333 14.757C17.333 14.7541 17.333 14.7512 17.333 14.7484C17.333 14.7455 17.333 14.7426 17.333 14.7398C17.333 14.7369 17.333 14.734 17.333 14.7312C17.333 14.7283 17.333 14.7254 17.333 14.7226C17.333 14.7197 17.333 14.7169 17.333 14.714C17.333 14.7111 17.333 14.7083 17.333 14.7054C17.333 14.7026 17.333 14.6997 17.333 14.6969C17.333 14.694 17.333 14.6912 17.333 14.6883C17.333 14.6855 17.333 14.6827 17.333 14.6798C17.333 14.677 17.333 14.6741 17.333 14.6713C17.333 14.6685 17.333 14.6656 17.333 14.6628C17.333 14.66 17.333 14.6571 17.333 14.6543C17.333 14.6515 17.333 14.6486 17.333 14.6458C17.333 14.643 17.333 14.6402 17.333 14.6373C17.333 14.6345 17.333 14.6317 17.333 14.6289C17.333 14.626 17.333 14.6232 17.333 14.6204C17.333 14.6176 17.333 14.6148 17.333 14.612C17.333 14.6092 17.333 14.6063 17.333 14.6035C17.333 14.6007 17.333 14.5979 17.333 14.5951C17.333 14.5923 17.333 14.5895 17.333 14.5867C17.333 14.5839 17.333 14.5811 17.333 14.5783C17.333 14.5755 17.333 14.5727 17.333 14.5699C17.333 14.5672 17.333 14.5644 17.333 14.5616C17.333 14.5588 17.333 14.556 17.333 14.5532C17.333 14.5504 17.333 14.5477 17.333 14.5449C17.333 14.5421 17.333 14.5393 17.333 14.5365C17.333 14.5338 17.333 14.531 17.333 14.5282C17.333 14.5255 17.333 14.5227 17.333 14.5199C17.333 14.5172 17.333 14.5144 17.333 14.5116C17.333 14.5089 17.333 14.5061 17.333 14.5033C17.333 14.5006 17.333 14.4978 17.333 14.4951C17.333 14.4923 17.333 14.4896 17.333 14.4868C17.333 14.4841 17.333 14.4813 17.333 14.4786C17.333 14.4758 17.333 14.4731 17.333 14.4704C17.333 14.4676 17.333 14.4649 17.333 14.4621C17.333 14.4594 17.333 14.4567 17.333 14.4539C17.333 14.4512 17.333 14.4485 17.333 14.4458C17.333 14.443 17.333 14.4403 17.333 14.4376C17.333 14.4349 17.333 14.4322 17.333 14.4294C17.333 14.4267 17.333 14.424 17.333 14.4213C17.333 14.4186 17.333 14.4159 17.333 14.4132C17.333 14.4105 17.333 14.4077 17.333 14.405C17.333 14.4023 17.333 14.3996 17.333 14.3969C17.333 14.3942 17.333 14.3916 17.333 14.3889C17.333 14.3862 17.333 14.3835 17.333 14.3808C17.333 14.3781 17.333 14.3754 17.333 14.3727C17.333 14.3701 17.333 14.3674 17.333 14.3647C17.333 14.362 17.333 14.3593 17.333 14.3567C17.333 14.354 17.333 14.3513 17.333 14.3487C17.333 14.346 17.333 14.3433 17.333 14.3407C17.333 14.338 17.333 14.3353 17.333 14.3327C17.333 14.33 17.333 14.3274 17.333 14.3247C17.333 14.3221 17.333 14.3194 17.333 14.3168C17.333 14.3141 17.333 14.3115 17.333 14.3088C17.333 14.3062 17.333 14.3035 17.333 14.3009C17.333 14.2983 17.333 14.2956 17.333 14.293C17.333 14.2904 17.333 14.2877 17.333 14.2851C17.333 14.2825 17.333 14.2799 17.333 14.2773C17.333 14.2746 17.333 14.272 17.333 14.2694C17.333 14.2668 17.333 14.2642 17.333 14.2616C17.333 14.2589 17.333 14.2563 17.333 14.2537C17.333 14.2511 17.333 14.2485 17.333 14.2459C17.333 14.2433 17.333 14.2407 17.333 14.2381C17.333 14.2355 17.333 14.233 17.333 14.2304C17.333 14.2278 17.333 14.2252 17.333 14.2226C17.333 14.22 17.333 14.2175 17.333 14.2149C17.333 14.2123 17.333 14.2097 17.333 14.2072C17.333 14.2046 17.333 14.202 17.333 14.1995C17.333 14.1969 17.333 14.1943 17.333 14.1918C17.333 14.1892 17.333 14.1866 17.333 14.1841C17.333 14.1815 17.333 14.179 17.333 14.1764C17.333 14.1739 17.333 14.1714 17.333 14.1688C17.333 14.1663 17.333 14.1637 17.333 14.1612C17.333 14.1587 17.333 14.1561 17.333 14.1536C17.333 14.1511 17.333 14.1485 17.333 14.146C17.333 14.1435 17.333 14.141 17.333 14.1385C17.333 14.1359 17.333 14.1334 17.333 14.1309C17.333 14.1284 17.333 14.1259 17.333 14.1234C17.333 14.1209 17.333 14.1184 17.333 14.1159C17.333 14.1134 17.333 14.1109 17.333 14.1084C17.333 14.1059 17.333 14.1034 17.333 14.1009C17.333 14.0984 17.333 14.0959 17.333 14.0935C17.333 14.091 17.333 14.0885 17.333 14.086C17.333 14.0836 17.333 14.0811 17.333 14.0786C17.333 14.0761 17.333 14.0737 17.333 14.0712C17.333 14.0688 17.333 14.0663 17.333 14.0638C17.333 14.0614 17.333 14.0589 17.333 14.0565C17.333 14.054 17.333 14.0516 17.333 14.0491C17.333 14.0467 17.333 14.0443 17.333 14.0418C17.333 14.0394 17.333 14.037 17.333 14.0345C17.333 14.0321 17.333 14.0297 17.333 14.0272C17.333 14.0248 17.333 14.0224 17.333 14.02C17.333 14.0176 17.333 14.0152 17.333 14.0127C17.333 14.0103 17.333 14.0079 17.333 14.0055C17.333 14.0031 17.333 14.0007 17.333 13.9983C17.333 13.9959 17.333 13.9935 17.333 13.9911C17.333 13.9888 17.333 13.9864 17.333 13.984C17.333 13.9816 17.333 13.9792 17.333 13.9768C17.333 13.9745 17.333 13.9721 17.333 13.9697C17.333 13.9674 17.333 13.965 17.333 13.9626C17.333 13.9603 17.333 13.9579 17.333 13.9556C17.333 13.9532 17.333 13.9508 17.333 13.9485C17.333 13.9461 17.333 13.9438 17.333 13.9415C17.333 13.9391 17.333 13.9368 17.333 13.9344C17.333 13.9321 17.333 13.9298 17.333 13.9275C17.333 13.9251 17.333 13.9228 17.333 13.9205C17.333 13.9182 17.333 13.9158 17.333 13.9135C17.333 13.9112 17.333 13.9089 17.333 13.9066C17.333 13.9043 17.333 13.902 17.333 13.8997C17.333 13.8974 17.333 13.8951 17.333 13.8928C17.333 13.8905 17.333 13.8882 17.333 13.8859C17.333 13.8837 17.333 13.8814 17.333 13.8791C17.333 13.8768 17.333 13.8746 17.333 13.8723C17.333 13.87 17.333 13.8677 17.333 13.8655C17.333 13.8632 17.333 13.861 17.333 13.8587C17.333 13.8565 17.333 13.8542 17.333 13.852C17.333 13.8497 17.333 13.8475 17.333 13.8452C17.333 13.843 17.333 13.8408 17.333 13.8385C17.333 13.8363 17.333 13.8341 17.333 13.8318C17.333 13.8296 17.333 13.8274 17.333 13.8252C17.333 13.823 17.333 13.8207 17.333 13.8185C17.333 13.8163 17.333 13.8141 17.333 13.8119C17.333 13.8097 17.333 13.8075 17.333 13.8053C17.333 13.8031 17.333 13.8009 17.333 13.7987C17.333 13.7966 17.333 13.7944 17.333 13.7922C17.333 13.79 17.333 13.7878 17.333 13.7857C17.333 13.7835 17.333 13.7813 17.333 13.7792C17.333 13.777 17.333 13.7749 17.333 13.7727C17.333 13.7705 17.333 13.7684 17.333 13.7662C17.333 13.7641 17.333 13.762 17.333 13.7598C17.333 13.7577 17.333 13.7555 17.333 13.7534C17.333 13.7513 17.333 13.7492 17.333 13.747C17.333 13.7449 17.333 13.7428 17.333 13.7407C17.333 13.7386 17.333 13.7364 17.333 13.7343C17.333 13.7322 17.333 13.7301 17.333 13.728C17.333 13.7259 17.333 13.7238 17.333 13.7217C17.333 13.7197 17.333 13.7176 17.333 13.7155C17.333 13.7134 17.333 13.7113 17.333 13.7093C17.333 13.7072 17.333 13.7051 17.333 13.703C17.333 13.701 17.333 13.6989 17.333 13.6969C17.333 13.6948 17.333 13.6928 17.333 13.6907C17.333 13.6887 17.333 13.6866 17.333 13.6846C17.333 13.6825 17.333 13.6805 17.333 13.6785C17.333 13.6764 17.333 13.6744 17.333 13.6724C17.333 13.6704 17.333 13.6683 17.333 13.6663C17.333 13.6643 17.333 13.6623 17.333 13.6603C17.333 13.6583 17.333 13.6563 17.333 13.6543C17.333 13.6523 17.333 13.6503 17.333 13.6483C17.333 13.6463 17.333 13.6443 17.333 13.6423C17.333 13.6404 17.333 13.6384 17.333 13.6364C17.333 13.6344 17.333 13.6325 17.333 13.6305C17.333 13.6285 17.333 13.6266 17.333 13.6246C17.333 13.6227 17.333 13.6207 17.333 13.6188C17.333 13.6168 17.333 13.6149 17.333 13.613C17.333 13.611 17.333 13.6091 17.333 13.6072C17.333 13.6052 17.333 13.6033 17.333 13.6014C17.333 13.5995 17.333 13.5976 17.333 13.5956C17.333 13.5937 17.333 13.5918 17.333 13.5899C17.333 13.588 17.333 13.5861 17.333 13.5842C17.333 13.5823 17.333 13.5805 17.333 13.5786C17.333 13.5767 17.333 13.5748 17.333 13.5729C17.333 13.5711 17.333 13.5692 17.333 13.5673C17.333 13.5655 17.333 13.5636 17.333 13.5617C17.333 13.5599 17.333 13.558 17.333 13.5562C17.333 13.5543 17.333 13.5525 17.333 13.5507C17.333 13.5488 17.333 13.547 17.333 13.5452C17.333 13.5433 17.333 13.5415 17.333 13.5397C17.333 13.5379 17.333 13.5361 17.333 13.5343C17.333 13.5324 17.333 13.5306 17.333 13.5288C17.333 13.527 17.333 13.5252 17.333 13.5235C17.333 13.5217 17.333 13.5199 17.333 13.5181C17.333 13.5163 17.333 13.5145 17.333 13.5128C17.333 13.511 17.333 13.5092 17.333 13.5075C17.333 13.5057 17.333 13.5039 17.333 13.5022C17.333 13.5004 17.333 13.4987 17.333 13.497C17.333 13.4952 17.333 13.4935 17.333 13.4917C17.333 13.49 17.333 13.4883 17.333 13.4866C17.333 13.4848 17.333 13.4831 17.333 13.4814C17.333 13.4797 17.333 13.478 17.333 13.4763C17.333 13.4746 17.333 13.4729 17.333 13.4712C17.333 13.4695 17.333 13.4678 17.333 13.4661C17.333 13.4644 17.333 13.4627 17.333 13.4611C17.333 13.4594 17.333 13.4577 17.333 13.4561C17.333 13.4544 17.333 13.4527 17.333 13.4511C17.333 13.4494 17.333 13.4478 17.333 13.4461C17.333 13.4445 17.333 13.4428 17.333 13.4412C17.333 13.4396 17.333 13.4379 17.333 13.4363C17.333 13.4347 17.333 13.4331 17.333 13.4315C17.333 13.4298 17.333 13.4282 17.333 13.4266C17.333 13.425 17.333 13.4234 17.333 13.4218C17.333 13.4202 17.333 13.4186 17.333 13.4171C17.333 13.4155 17.333 13.4139 17.333 13.4123C17.333 13.4107 17.333 13.4092 17.333 13.4076C17.333 13.406 17.333 13.4045 17.333 13.4029C17.333 13.4014 17.333 13.3998 17.333 13.3983C17.333 13.3967 17.333 13.3952 17.333 13.3937C17.333 13.3921 17.333 13.3906 17.333 13.3891C17.333 13.3876 17.333 13.386 17.333 13.3845C17.333 13.383 17.333 13.3815 17.333 13.38C17.333 13.3785 17.333 13.377 17.333 13.3755C17.333 13.374 17.333 13.3725 17.333 13.3711C17.333 13.3696 17.333 13.3681 17.333 13.3666C17.333 13.3652 17.333 13.3637 17.333 13.3622C17.333 13.3608 17.333 13.3593 17.333 13.3579C17.333 13.3564 17.333 13.355 17.333 13.3535C17.333 13.3521 17.333 13.3507 17.333 13.3492C17.333 13.3478 17.333 13.3464 17.333 13.345C17.333 13.3436 17.333 13.3421 17.333 13.3407C17.333 13.3393 17.333 13.3379 17.333 13.3365C17.333 13.3351 17.333 13.3338 17.333 13.3324C17.333 13.331 17.333 13.3296 17.333 13.3282C17.333 13.3269 17.333 13.3255 17.333 13.3241C17.333 13.3228 17.333 13.3214 17.333 13.3201C17.333 13.3187 17.333 13.3174 17.333 13.316C17.333 13.3147 17.333 13.3133 17.333 13.312C17.333 13.3107 17.333 13.3094 17.333 13.308C17.333 13.3067 17.333 13.3054 17.333 13.3041C17.333 13.3028 17.333 13.3015 17.333 13.3002C17.333 13.2989 17.333 13.2976 17.333 13.2963C17.333 13.295 17.333 13.2938 17.333 13.2925C17.333 13.2912 17.333 13.2899 17.333 13.2887C17.333 13.2874 17.333 13.2862 17.333 13.2849C17.333 13.2837 17.333 13.2824 17.333 13.2812C17.333 13.2799 17.333 13.2787 17.333 13.2775C17.333 13.2762 17.333 13.275 17.333 13.2738C17.333 13.2726 17.333 13.2714 17.333 13.2702C17.333 13.269 17.333 13.2678 17.333 13.2666C17.333 13.2654 17.333 13.2642 17.333 13.263C17.333 13.2618 17.333 13.2606 17.333 13.2595C17.333 13.2583 17.333 13.2571 17.333 13.256C17.333 13.2548 17.333 13.2536 17.333 13.2525C17.333 13.2514 17.333 13.2502 17.333 13.2491C17.333 13.2479 17.333 13.2468 17.333 13.2457C17.333 13.2446 17.333 13.2434 17.333 13.2423C17.333 13.2412 17.333 13.2401 17.333 13.239C17.333 13.2379 17.333 13.2368 17.333 13.2357C17.333 13.2346 17.333 13.2335 17.333 13.2325C17.333 13.2314 17.333 13.2303 17.333 13.2292C17.333 13.2282 17.333 13.2271 17.333 13.2261C17.333 13.225 17.333 13.224 17.333 13.2229C17.333 13.2219 17.333 13.2208 17.333 13.2198C17.333 13.2188 17.333 13.2178 17.333 13.2167C17.333 13.2157 17.333 13.2147 17.333 13.2137C17.333 13.2127 17.333 13.2117 17.333 13.2107C17.333 13.2097 17.333 13.2087 17.333 13.2077C17.333 13.2068 17.333 13.2058 17.333 13.2048C17.333 13.2038 17.333 13.2029 17.333 13.2019C17.333 13.201 17.333 13.2 17.333 13.1991C17.333 13.1981 17.333 13.1972 17.333 13.1962C17.333 13.1953 17.333 13.1944 17.333 13.1935C17.333 13.1925 17.333 13.1916 17.333 13.1907C17.333 13.1898 17.333 13.1889 17.333 13.188C17.333 13.1871 17.333 13.1862 17.333 13.1853C17.333 13.1845 17.333 13.1836 17.333 13.1827C17.333 13.1818 17.333 13.181 17.333 13.1801C17.333 13.1793 17.333 13.1784 17.333 13.1776C17.333 13.1767 17.333 13.1759 17.333 13.175C17.333 13.1742 17.333 13.1734 17.333 13.1726C17.333 13.1717 17.333 13.1709 17.333 13.1701C17.333 13.1693 17.333 13.1685 17.333 13.1677C17.333 13.1669 17.333 13.1661 17.333 13.1653C17.333 13.1646 17.333 13.1638 17.333 13.163C17.333 13.1622 17.333 13.1615 17.333 13.1607C17.333 13.16 17.333 13.1592 17.333 13.1585C17.333 13.1577 17.333 13.157 17.333 13.1562C17.333 13.1555 17.333 13.1548 17.333 13.1541C17.333 13.1534 17.333 13.1526 17.333 13.1519C17.333 13.1512 17.333 13.1505 17.333 13.1498C17.333 13.1491 17.333 13.1485 17.333 13.1478C17.333 13.1471 17.333 13.1464 17.333 13.1458C17.333 13.1451 17.333 13.1444 17.333 13.1438C17.333 13.1431 17.333 13.1425 17.333 13.1418C17.333 13.1412 17.333 13.1406 17.333 13.1399C17.333 13.1393 17.333 13.1387 17.333 13.1381C17.333 13.1374 17.333 13.1368 17.333 13.1362C17.333 13.1356 17.333 13.135 17.333 13.1345C17.333 13.1339 17.333 13.1333 17.333 13.1327C17.333 13.1321 17.333 13.1316 17.333 13.131C17.333 13.1304 17.333 13.1299 17.333 13.1293C17.333 13.1288 17.333 13.1282 17.333 13.1277C17.333 13.1272 17.333 13.1266 17.333 13.1261C17.333 13.1256 17.333 13.1251 17.333 13.1246C17.333 13.1241 17.333 13.1236 17.333 13.1231C17.333 13.1226 17.333 13.1221 17.333 13.1216C17.333 13.1211 17.333 13.1207 17.333 13.1202C17.333 13.1197 17.333 13.1193 17.333 13.1188C17.333 13.1184 17.333 13.1179 17.333 13.1175C17.333 13.117 17.333 13.1166 17.333 13.1162C17.333 13.1157 17.333 13.1153 17.333 13.1149C17.333 13.1145 17.333 13.1141 17.333 13.1137C17.333 13.1133 17.333 13.1129 17.333 13.1125C17.333 13.1121 17.333 13.1117 17.333 13.1114C17.333 13.111 17.333 13.1106 17.333 13.1103C17.333 13.1099 17.333 13.1096 17.333 13.1092C17.333 13.1089 17.333 13.1085 17.333 13.1082C17.333 13.1079 17.333 13.1076 17.333 13.1072C17.333 13.1069 17.333 13.1066 17.333 13.1063C17.333 13.106 17.333 13.1057 17.333 13.1054C17.333 13.1051 17.333 13.1049 17.333 13.1046C17.333 13.1043 17.333 13.104 17.333 13.1038C17.333 13.1035 17.333 13.1033 17.333 13.103C17.333 13.1028 17.333 13.1025 17.333 13.1023C17.333 13.1021 17.333 13.1019 17.333 13.1016C17.333 13.1014 17.333 13.1012 17.333 13.101C17.333 13.1008 17.333 13.1006 17.333 13.1004C17.333 13.1002 17.333 13.1 17.333 13.0999C17.333 13.0997 17.333 13.0995 17.333 13.0994C17.333 13.0992 17.333 13.0991 17.333 13.0989C17.333 13.0988 17.333 13.0986 17.333 13.0985C17.333 13.0984 17.333 13.0982 17.333 13.0981C17.333 13.098 17.333 13.0979 17.333 13.0978C17.333 13.0977 17.333 13.0976 17.333 13.0975C17.333 13.0974 17.333 13.0973 17.333 13.0973C17.333 13.0972 17.333 13.0971 17.333 13.0971C17.333 13.097 17.333 13.097 17.333 13.0969C17.333 13.0969 17.333 13.0968 17.333 13.0968C17.333 13.0968 17.333 13.0967 17.333 13.0967C17.333 13.0967 17.333 13.0967 16.583 13.0967ZM16.583 16.4839H15.833C15.833 16.4271 15.8489 16.3564 15.8887 16.2896C15.9257 16.2276 15.9674 16.1955 15.9845 16.1841C16.0053 16.1702 15.9822 16.1898 15.879 16.2065C15.7886 16.2212 15.6876 16.2256 15.602 16.2251C15.561 16.2248 15.5275 16.2235 15.5056 16.2223C15.4948 16.2217 15.487 16.2211 15.4829 16.2208C15.4808 16.2207 15.4797 16.2206 15.4796 16.2206C15.4795 16.2206 15.4797 16.2206 15.4801 16.2206C15.4803 16.2206 15.4806 16.2207 15.481 16.2207C15.4812 16.2207 15.4814 16.2207 15.4816 16.2208C15.4817 16.2208 15.4818 16.2208 15.4819 16.2208C15.4821 16.2208 15.4822 16.2208 15.4147 16.9678C15.3471 17.7147 15.3473 17.7147 15.3475 17.7147C15.3476 17.7148 15.3478 17.7148 15.3479 17.7148C15.3482 17.7148 15.3485 17.7148 15.3488 17.7149C15.3494 17.7149 15.3501 17.715 15.3509 17.715C15.3525 17.7152 15.3544 17.7153 15.3565 17.7155C15.3608 17.7159 15.3662 17.7163 15.3727 17.7168C15.3857 17.7177 15.403 17.7189 15.4241 17.72C15.4661 17.7223 15.5239 17.7246 15.5925 17.725C15.7259 17.7259 15.9169 17.7199 16.1187 17.6873C16.3076 17.6567 16.5765 17.5922 16.8164 17.4323C17.0888 17.2508 17.333 16.9326 17.333 16.4839H16.583ZM13.4675 18.9033C12.8935 19.386 12.8937 19.3862 12.8939 19.3864C12.894 19.3865 12.8941 19.3867 12.8943 19.3869C12.8945 19.3872 12.8948 19.3875 12.8951 19.3879C12.8957 19.3885 12.8963 19.3893 12.8971 19.3902C12.8985 19.3919 12.9003 19.394 12.9024 19.3965C12.9066 19.4013 12.912 19.4076 12.9186 19.4151C12.9319 19.4301 12.9499 19.4503 12.9727 19.4749C13.018 19.5239 13.0823 19.5909 13.164 19.6698C13.3268 19.8269 13.5626 20.0348 13.86 20.2432C14.4456 20.6538 15.3259 21.1049 16.3883 21.1049V20.3549V19.6049C15.7508 19.6049 15.1708 19.3303 14.721 19.015C14.5006 18.8605 14.3249 18.7055 14.2057 18.5904C14.1464 18.5332 14.102 18.4868 14.074 18.4565C14.06 18.4413 14.0501 18.4303 14.0447 18.4241C14.0419 18.421 14.0403 18.4191 14.0397 18.4184C14.0395 18.4181 14.0395 18.4181 14.0398 18.4185C14.0399 18.4187 14.0401 18.4189 14.0404 18.4192C14.0406 18.4194 14.0407 18.4196 14.0409 18.4198C14.041 18.4199 14.0411 18.4201 14.0412 18.4202C14.0413 18.4203 14.0415 18.4205 13.4675 18.9033ZM16.3883 20.3549V21.1049C17.4506 21.1049 18.3309 20.6538 18.9166 20.2432C19.2139 20.0348 19.4497 19.8269 19.6125 19.6698C19.6942 19.5909 19.7585 19.5239 19.8039 19.4749C19.8266 19.4503 19.8446 19.4301 19.8579 19.4151C19.8645 19.4076 19.8699 19.4013 19.8741 19.3965C19.8762 19.394 19.878 19.3919 19.8794 19.3902C19.8802 19.3893 19.8809 19.3885 19.8814 19.3879C19.8817 19.3875 19.882 19.3872 19.8823 19.3869C19.8824 19.3867 19.8826 19.3865 19.8826 19.3864C19.8828 19.3862 19.883 19.386 19.309 18.9033C18.735 18.4205 18.7352 18.4203 18.7353 18.4202C18.7354 18.4201 18.7355 18.4199 18.7356 18.4198C18.7358 18.4196 18.736 18.4194 18.7361 18.4192C18.7364 18.4189 18.7366 18.4187 18.7367 18.4185C18.737 18.4181 18.7371 18.4181 18.7368 18.4184C18.7363 18.4191 18.7346 18.421 18.7319 18.4241C18.7264 18.4303 18.7165 18.4413 18.7026 18.4565C18.6745 18.4868 18.6301 18.5332 18.5708 18.5904C18.4516 18.7055 18.2759 18.8605 18.0555 19.015C17.6057 19.3303 17.0257 19.6049 16.3883 19.6049V20.3549ZM12.2877 7C12.2877 6.25 12.2877 6.25 12.2877 6.25C12.2877 6.25 12.2877 6.25 12.2877 6.25C12.2876 6.25 12.2875 6.25 12.2875 6.25C12.2872 6.25 12.2871 6.25 12.2867 6.25C12.286 6.25 12.2849 6.25 12.2835 6.25C12.2807 6.25 12.2765 6.25 12.2711 6.25C12.2601 6.25 12.2439 6.25 12.223 6.25C12.1811 6.25 12.1201 6.25 12.0437 6.25C11.8909 6.25 11.6766 6.25 11.4305 6.25C10.9383 6.25 10.319 6.25 9.81047 6.25V7V7.75C10.319 7.75 10.9383 7.75 11.4305 7.75C11.6766 7.75 11.8909 7.75 12.0437 7.75C12.1201 7.75 12.1811 7.75 12.223 7.75C12.2439 7.75 12.2601 7.75 12.2711 7.75C12.2765 7.75 12.2807 7.75 12.2835 7.75C12.2849 7.75 12.286 7.75 12.2867 7.75C12.2871 7.75 12.2872 7.75 12.2875 7.75C12.2875 7.75 12.2876 7.75 12.2877 7.75C12.2877 7.75 12.2877 7.75 12.2877 7.75C12.2877 7.75 12.2877 7.75 12.2877 7ZM7.33322 9.56448H6.58322V12.129H7.33322H8.08322V9.56448H7.33322ZM9.81047 7V6.25C9.20227 6.25 8.39924 6.39182 7.73124 6.90896C7.02877 7.45278 6.58309 8.32827 6.58322 9.56455L7.33322 9.56448L8.08322 9.5644C8.08313 8.72009 8.36753 8.31334 8.64947 8.09507C8.96587 7.85012 9.40158 7.75 9.81047 7.75V7Z" fill="#6B7280"/>
</svg>
