<svg width="36" height="36" viewBox="0 0 36 36" fill="none" xmlns="http://www.w3.org/2000/svg">
<path d="M22.5 4.5C27.4706 4.5 31.5 8.52944 31.5 13.5C31.5 18.4706 27.4706 22.5 22.5 22.5C22.0897 22.5 21.6858 22.4726 21.29 22.4194C20.6388 22.3319 20.3125 22.2874 20.1064 22.3169C19.8919 22.3476 19.7756 22.3869 19.5864 22.4927C19.4049 22.5943 19.2262 22.7738 18.8687 23.1313L16.5 25.5H13.5V28.5H10.5V31.5H6.89941C6.05973 31.5 5.63964 31.4994 5.31885 31.3359C5.03689 31.1922 4.80782 30.9631 4.66406 30.6812C4.50061 30.3604 4.5 29.9403 4.5 29.1006V26.4946C4.5 26.1277 4.49957 25.9436 4.54102 25.771C4.57776 25.618 4.63896 25.4716 4.72119 25.3374C4.81395 25.1861 4.94381 25.0562 5.20313 24.7969L12.8687 17.1313C13.2262 16.7738 13.4057 16.5951 13.5073 16.4136C13.6131 16.2244 13.6524 16.1081 13.6831 15.8936C13.7126 15.6875 13.6681 15.3612 13.5806 14.71C13.5274 14.3142 13.5 13.9103 13.5 13.5C13.5 8.52944 17.5294 4.5 22.5 4.5ZM22.5 9C21.6716 9 21 9.67157 21 10.5C21 11.3284 21.6716 12 22.5 12C22.8862 12 23.2674 12.1463 23.5605 12.4395C23.8537 12.7326 24 13.1138 24 13.5C24 14.3284 24.6716 15 25.5 15C26.3284 15 27 14.3284 27 13.5C27 12.3507 26.56 11.1967 25.6816 10.3184C24.8033 9.43997 23.6493 9 22.5 9Z" fill="url(#paint0_linear_15362_45840)"/>
<defs>
<linearGradient id="paint0_linear_15362_45840" x1="31.5" y1="18" x2="4.5" y2="18" gradientUnits="userSpaceOnUse">
<stop stop-color="#EFB44D"/>
<stop offset="1" stop-color="#AD6E00"/>
</linearGradient>
</defs>
</svg>
