<svg width="24" height="24" viewBox="0 0 24 24" fill="none" xmlns="http://www.w3.org/2000/svg">
<path d="M15 3C18.3137 3 21 5.68629 21 9C21 12.3137 18.3137 15 15 15C14.7265 15 14.4572 14.9817 14.1934 14.9463C13.7592 14.8879 13.5416 14.8583 13.4043 14.8779C13.2613 14.8984 13.1838 14.9246 13.0576 14.9951C12.9366 15.0628 12.8175 15.1825 12.5791 15.4209L11 17H9V19H7V21H4.59961C4.03982 21 3.75976 20.9996 3.5459 20.8906C3.35793 20.7948 3.20522 20.6421 3.10938 20.4541C3.00041 20.2402 3 19.9602 3 19.4004V17.6631C3 17.4185 2.99971 17.2958 3.02734 17.1807C3.05184 17.0786 3.09264 16.9811 3.14746 16.8916C3.2093 16.7907 3.29587 16.7041 3.46875 16.5312L8.5791 11.4209C8.81749 11.1825 8.93717 11.0634 9.00488 10.9424C9.07539 10.8162 9.10161 10.7387 9.12207 10.5957C9.14171 10.4584 9.11208 10.2408 9.05371 9.80664C9.01826 9.54281 9 9.27354 9 9C9 5.68629 11.6863 3 15 3ZM15 6C14.4477 6 14 6.44772 14 7C14 7.55228 14.4477 8 15 8C15.2575 8 15.5116 8.09751 15.707 8.29297C15.9025 8.48842 16 8.74254 16 9C16 9.55226 16.4477 10 17 10C17.5523 9.99998 18 9.55224 18 9C18 8.23381 17.7067 7.46447 17.1211 6.87891C16.5355 6.29332 15.7662 6 15 6Z" fill="#9FA8B5"/>
</svg>
