<svg width="24" height="24" viewBox="0 0 24 24" fill="none" xmlns="http://www.w3.org/2000/svg">
<path d="M16 2C19.3334 1.99995 22 4.66667 22 8V16C22 19.3333 19.3334 22 16 22H8C4.66674 22 1.99989 19.3333 2 16C2.00011 12.6667 1.99996 11.3333 2 8C2.00004 4.66667 4.66674 2.00001 8 2H16ZM8.85547 6.13867C8.48941 5.95352 8.05649 5.95352 7.69043 6.13867C7.50641 6.23178 7.33489 6.40339 6.99219 6.74609L6.89062 6.84766C6.54904 7.18924 6.37849 7.36057 6.24805 7.59277C6.10338 7.85045 5.99912 8.25046 6 8.5459C6.00081 8.81218 6.05294 8.9944 6.15625 9.3584C6.71157 11.3147 7.75873 13.1611 9.29883 14.7012C10.8389 16.2413 12.6853 17.2884 14.6416 17.8438C15.0056 17.9471 15.1878 17.9992 15.4541 18C15.7495 18.0009 16.1495 17.8966 16.4072 17.752C16.6394 17.6215 16.8108 17.451 17.1523 17.1094L17.2539 17.0078C17.5966 16.6651 17.7682 16.4936 17.8613 16.3096C18.0465 15.9435 18.0465 15.5106 17.8613 15.1445C17.7682 14.9606 17.5965 14.7889 17.2539 14.4463L17.1279 14.3213C16.9025 14.0959 16.7901 13.9829 16.6768 13.9092C16.2492 13.6312 15.698 13.6313 15.2705 13.9092C15.1571 13.9829 15.0438 14.0958 14.8184 14.3213C14.7448 14.3948 14.7081 14.4321 14.665 14.4629C14.512 14.5724 14.29 14.6101 14.1094 14.5576C14.0585 14.5428 14.0179 14.523 13.9375 14.4844C13.0026 14.0355 12.1265 13.4234 11.3516 12.6484C10.5766 11.8735 9.96452 10.9974 9.51562 10.0625C9.47701 9.98208 9.45722 9.94151 9.44238 9.89062C9.38986 9.70996 9.42765 9.48798 9.53711 9.33496C9.56792 9.29193 9.6052 9.25516 9.67871 9.18164C9.9042 8.95615 10.0171 8.84286 10.0908 8.72949C10.3687 8.30196 10.3688 7.75076 10.0908 7.32324C10.0171 7.20992 9.90409 7.09745 9.67871 6.87207L9.55371 6.74609C9.21109 6.40347 9.03944 6.2318 8.85547 6.13867Z" fill="#9FA8B5"/>
</svg>
