<svg width="24" height="24" viewBox="0 0 24 24" fill="none" xmlns="http://www.w3.org/2000/svg">
<path opacity="0.8" fill-rule="evenodd" clip-rule="evenodd" d="M15.168 2.0088C15.4348 2.05318 15.6721 2.20181 15.8252 2.41983C16 2.66914 16 3.07482 16 3.88485V3.88755V7.30459H16.2C17.8802 7.30459 18.7202 7.30459 19.362 7.62391C19.9265 7.90479 20.3854 8.35298 20.673 8.90424C21 9.53094 21 10.3513 21 11.9921V15.3124C21 16.9532 21 17.7736 20.673 18.4003C20.3854 18.9516 19.9265 19.3998 19.362 19.6806C18.7202 20 17.8802 20 16.2 20L6 20C4.34315 20 3 18.6883 3 17.0703L3 10.4298L3 10.1574C3 9.11372 3 8.59189 3.16612 8.12489C3.31022 7.7198 3.55868 7.3304 3.86754 7.02558C4.22362 6.67417 4.68411 6.45342 5.6051 6.01193C5.75218 5.94142 5.87818 5.88218 5.97236 5.83973L13.7295 2.46942L13.738 2.46557C14.4875 2.12775 14.8637 1.95822 15.168 2.0088ZM14.5 13.6523C14.5 12.8433 15.1716 12.1874 16 12.1874C16.8284 12.1874 17.5 12.8433 17.5 13.6523C17.5 14.4613 16.8284 15.1171 16 15.1171C15.1716 15.1171 14.5 14.4613 14.5 13.6523ZM14 6.99209C14 7.10147 14 7.15617 13.9782 7.19795C13.959 7.2347 13.9284 7.26458 13.8908 7.2833C13.848 7.30459 13.792 7.30459 13.68 7.30459L7.77974 7.30459C7.55579 7.30459 7.44381 7.30459 7.41415 7.27348C7.38865 7.24673 7.38057 7.2083 7.39323 7.1739C7.40795 7.1339 7.51088 7.09084 7.71673 7.00471L13.554 4.56244C13.7029 4.50014 13.7774 4.46898 13.8374 4.48012C13.8898 4.48986 13.9361 4.51966 13.9659 4.5629C14 4.61236 14 4.69147 14 4.84969V6.99209Z" fill="url(#paint0_linear_15697_4259)"/>
<defs>
<linearGradient id="paint0_linear_15697_4259" x1="21" y1="11" x2="3" y2="11" gradientUnits="userSpaceOnUse">
<stop stop-color="#6A4CFF"/>
<stop offset="1" stop-color="#401AFF"/>
</linearGradient>
</defs>
</svg>
