<svg width="24" height="24" viewBox="0 0 24 24" fill="none" xmlns="http://www.w3.org/2000/svg">
<path opacity="0.8" d="M21.0908 14.727C21.5928 14.727 21.9998 15.1342 22 15.6361C22 18.025 20.1571 19.9824 17.8154 20.1664L18.0977 20.4486C18.4523 20.8036 18.4524 21.3789 18.0977 21.7338C17.7426 22.0888 17.1665 22.0888 16.8115 21.7338L14.9932 19.9154C14.6386 19.5605 14.6386 18.9852 14.9932 18.6303L16.8115 16.8119C16.9668 16.6566 17.1645 16.5687 17.3672 16.5492C17.3964 16.5464 17.4258 16.5453 17.4551 16.5453C17.6875 16.5454 17.9203 16.6345 18.0977 16.8119C18.1321 16.8464 18.1617 16.8841 18.1895 16.9223C18.1938 16.9283 18.1989 16.9337 18.2031 16.9398C18.2293 16.9778 18.2517 17.0174 18.2715 17.058C18.2745 17.0642 18.2774 17.0703 18.2803 17.0766C18.4338 17.4119 18.3736 17.8209 18.0977 18.0971L17.8604 18.3334C19.1741 18.1374 20.1816 17.0045 20.1816 15.6361C20.1818 15.1342 20.5889 14.727 21.0908 14.727ZM20 14.0707C19.5056 14.4157 19.1816 14.9885 19.1816 15.6371C19.1815 15.8971 19.1226 16.1434 19.0195 16.3646C18.9927 16.3262 18.9656 16.2872 18.9355 16.2504L18.8047 16.1049L18.6592 15.974C17.9094 15.3626 16.8034 15.406 16.1045 16.1049L14.2861 17.9232C14.2614 17.948 14.2389 17.9747 14.2158 18.0004H7.0752C6.69681 18.0004 6.36712 18.0006 6.0957 17.9779C5.80927 17.954 5.51822 17.9008 5.23633 17.7543C4.81866 17.537 4.472 17.1859 4.25195 16.7455C4.10137 16.4439 4.04662 16.1318 4.02246 15.8305C3.99981 15.5473 3.99999 15.2046 4 14.8197V10.7143H20V14.0707ZM7.2002 12.8578C6.7585 12.8578 6.4006 13.2411 6.40039 13.7143C6.40056 14.1875 6.75847 14.5717 7.2002 14.5717H11.2002C11.6418 14.5716 11.9998 14.1874 12 13.7143C11.9998 13.2411 11.6418 12.8579 11.2002 12.8578H7.2002ZM16.9248 6.00039C17.3032 6.00037 17.6329 6.00022 17.9043 6.02285C18.1908 6.04676 18.4818 6.09991 18.7637 6.24648C19.1814 6.46382 19.528 6.81482 19.748 7.25527C19.8986 7.55686 19.9534 7.869 19.9775 8.17031C20.0002 8.45384 20 9.04421 20 9.4291H4.49316C4.69825 9.12483 4.81829 8.75815 4.81836 8.36367C4.81841 8.10353 4.87639 7.85659 4.97949 7.63515C5.04306 7.72629 5.114 7.81458 5.19531 7.8959C5.94081 8.64122 7.15 8.64121 7.89551 7.8959L9.71387 6.07754C9.73857 6.05283 9.76112 6.02609 9.78418 6.00039H16.9248ZM5.90234 2.26601C6.25736 1.911 6.83345 1.91101 7.18848 2.26601L9.00684 4.08437C9.36171 4.43941 9.36181 5.01553 9.00684 5.37051L7.18848 7.18886L7.11914 7.25136C7.06122 7.29855 6.99789 7.33582 6.93262 7.3666C6.91926 7.37289 6.90616 7.37954 6.89258 7.38515C6.87969 7.39048 6.86659 7.3951 6.85352 7.3998C6.84283 7.40365 6.83208 7.40711 6.82129 7.41054C6.77356 7.42572 6.72499 7.43665 6.67578 7.44375C6.66925 7.44469 6.66279 7.44588 6.65625 7.44668C6.60855 7.45251 6.56066 7.45426 6.5127 7.45254C6.50552 7.45228 6.49838 7.45199 6.49121 7.45156C6.4433 7.44871 6.3957 7.44243 6.34863 7.43203C6.3339 7.42878 6.31927 7.42528 6.30469 7.42129C6.29654 7.41905 6.28837 7.41691 6.28027 7.41445C6.25991 7.40826 6.2397 7.40159 6.21973 7.39394C6.20992 7.39018 6.20013 7.38634 6.19043 7.38222C6.17356 7.37508 6.15712 7.36699 6.14062 7.35879C6.13386 7.35542 6.12682 7.35257 6.12012 7.34902C6.10187 7.33936 6.0841 7.32876 6.06641 7.31777C6.05699 7.31192 6.04732 7.30642 6.03809 7.30019C5.9903 7.26801 5.94462 7.23112 5.90234 7.18886C5.86867 7.15519 5.83881 7.11871 5.81152 7.08144C5.80542 7.0731 5.79973 7.06455 5.79395 7.05605C5.76886 7.01922 5.74661 6.98115 5.72754 6.94179C5.72429 6.93509 5.72182 6.92806 5.71875 6.92129C5.70062 6.8814 5.68491 6.84083 5.67285 6.79922C5.67004 6.78949 5.66752 6.77972 5.66504 6.76992C5.66075 6.75305 5.65662 6.73618 5.65332 6.71914L5.6416 6.64492C5.64132 6.64231 5.64088 6.63972 5.64062 6.63711C5.63648 6.5959 5.63623 6.55444 5.6377 6.51308C5.6381 6.502 5.63884 6.49095 5.63965 6.47988C5.64267 6.43798 5.64745 6.39612 5.65625 6.35488C5.65759 6.34863 5.65966 6.34255 5.66113 6.33633C5.69853 6.17754 5.77855 6.0266 5.90234 5.90273L6.13867 5.66543C4.8253 5.86176 3.81836 6.99561 3.81836 8.36367C3.81836 8.86572 3.41122 9.2728 2.90918 9.27285C2.4071 9.27285 2 8.86575 2 8.36367C2 5.97491 3.84314 4.01758 6.18457 3.8334L5.90234 3.55215C5.54736 3.19713 5.54735 2.62103 5.90234 2.26601Z" fill="url(#paint0_linear_15697_826)"/>
<defs>
<linearGradient id="paint0_linear_15697_826" x1="2" y1="12.0001" x2="22" y2="12.0001" gradientUnits="userSpaceOnUse">
<stop stop-color="#0F50A9"/>
<stop offset="1" stop-color="#2F80ED"/>
</linearGradient>
</defs>
</svg>
