<svg width="24" height="24" viewBox="0 0 24 24" fill="none" xmlns="http://www.w3.org/2000/svg">
<path opacity="0.8" d="M4.40039 13C4.96018 13 5.24024 13.0004 5.4541 13.1094L5.58789 13.1914C5.71477 13.2837 5.8187 13.4048 5.89062 13.5459C5.91783 13.5993 5.93875 13.6567 5.9541 13.7217C5.96176 13.7541 5.96733 13.7886 5.97266 13.8252C5.98874 13.9353 5.99543 14.0659 5.99805 14.2285C5.99976 14.3369 6 14.4595 6 14.5996V20.4004C6 20.8198 6.00003 21.0822 5.9541 21.2773C5.93876 21.3426 5.91794 21.4005 5.89062 21.4541C5.79479 21.6421 5.64207 21.7948 5.4541 21.8906L5.37012 21.9268C5.16562 21.9997 4.89015 22 4.40039 22H3.59961C3.24993 22 3.00956 21.9992 2.82617 21.9727C2.78958 21.9673 2.75512 21.9617 2.72266 21.9541C2.65738 21.9388 2.5995 21.9179 2.5459 21.8906C2.40484 21.8187 2.28366 21.7148 2.19141 21.5879L2.10938 21.4541C2.09097 21.418 2.0762 21.3798 2.06348 21.3389C2.00086 21.1375 2 20.8658 2 20.4004V14.5996C2 14.3365 2.0004 14.1353 2.01172 13.9736C2.01864 13.8754 2.02909 13.7917 2.04688 13.7178C2.06208 13.6545 2.08274 13.5982 2.10938 13.5459C2.1813 13.4048 2.28523 13.2837 2.41211 13.1914L2.5459 13.1094C2.75976 13.0004 3.84059 13 4.40039 13ZM11.6436 13C12.0429 13 12.4402 13.0476 12.8281 13.1416L15.2139 13.7217C15.9153 13.8918 16.4081 14.5054 16.4082 15.209V15.5156C16.4082 16.363 15.7297 16.6539 15 16.7998C14 16.9998 13.2852 17.0498 13.2852 17.0498H15.7139C16.1645 17.0498 16.6028 16.9077 16.9629 16.6445L19.4775 14.8105C20.1051 14.353 20.9834 14.4135 21.5381 14.9531C22.1541 15.5525 22.1542 16.5238 21.5381 17.1221L19.3799 19.2207C18.7992 19.7855 18.0583 20.1712 17.2529 20.3281L14.2031 20.9219C13.5986 21.0392 12.9752 21.0246 12.377 20.8789L9.61914 20.209C9.37175 20.1483 9.11935 20.1099 8.86523 20.0947L8.61035 20.0869H6.99219C6.99595 19.5871 6.99943 19.0955 7 19.0869V15.6904L6.96875 14.6191L8.93164 13.7988C8.93164 13.7988 10.6787 13 11.6436 13ZM16.5 3C18.433 3 20 4.567 20 6.5C20 6.62068 19.9934 6.73988 19.9814 6.85742C19.9755 6.91643 19.9688 6.9751 19.96 7.0332C19.8803 7.55456 19.6854 8.0381 19.4023 8.45703C19.3395 8.55009 19.2725 8.64017 19.2012 8.72656C18.5592 9.50446 17.5873 10 16.5 10C15.2666 10 14.1829 9.36148 13.5596 8.39746C13.206 7.8507 13 7.19956 13 6.5C13 5.31649 13.5881 4.27115 14.4873 3.6377C14.5442 3.59759 14.6018 3.55821 14.6611 3.52148C14.6785 3.51074 14.6963 3.50068 14.7139 3.49023C15.2368 3.17921 15.8474 3 16.5 3ZM11.5 2C12.3913 2 13.2005 2.33667 13.8164 2.88672C13.681 2.98521 13.5419 3.09572 13.4336 3.20703C12.5518 4.02855 12 5.19973 12 6.5C12 7.16359 12.1445 7.79325 12.4023 8.36035C12.4836 8.53898 12.5673 8.69086 12.6416 8.81641C12.2827 8.93544 11.8983 9 11.5 9C9.567 9 8 7.433 8 5.5C8 3.567 9.567 2 11.5 2Z" fill="url(#paint0_linear_15697_4453)"/>
<defs>
<linearGradient id="paint0_linear_15697_4453" x1="22.0001" y1="12" x2="2" y2="12" gradientUnits="userSpaceOnUse">
<stop stop-color="#F2B705"/>
<stop offset="1" stop-color="#BE9004"/>
</linearGradient>
</defs>
</svg>
