<svg width="24" height="24" viewBox="0 0 24 24" fill="none" xmlns="http://www.w3.org/2000/svg">
<path opacity="0.8" d="M11.302 21.7507C11.5234 21.8812 11.6341 21.9464 11.7903 21.9803C11.9116 22.0066 12.0884 22.0066 12.2097 21.9803C12.3659 21.9464 12.4766 21.8812 12.698 21.7507C14.646 20.6024 20 16.9952 20 12.0356V7.2033C20 6.39545 20 5.99152 19.8692 5.64431C19.7537 5.33758 19.566 5.06389 19.3223 4.84691C19.0465 4.60128 18.6722 4.45946 17.9236 4.1758L12.5618 2.14416C12.3539 2.06539 12.25 2.026 12.143 2.01039C12.0482 1.99654 11.9518 1.99654 11.857 2.01039C11.75 2.026 11.6461 2.06539 11.4382 2.14416L6.0764 4.1758C5.3278 4.45945 4.9535 4.60128 4.67766 4.84691C4.43398 5.06389 4.24627 5.33758 4.13076 5.64431C4 5.99152 4 6.39545 4 7.2033V12.0356C4 16.9952 9.35396 20.6024 11.302 21.7507Z" fill="url(#paint0_linear_15697_1521)"/>
<defs>
<linearGradient id="paint0_linear_15697_1521" x1="20" y1="12" x2="4" y2="12" gradientUnits="userSpaceOnUse">
<stop stop-color="#4A70A5"/>
<stop offset="1" stop-color="#2B405F"/>
</linearGradient>
</defs>
</svg>
