<svg width="24" height="24" viewBox="0 0 24 24" fill="none" xmlns="http://www.w3.org/2000/svg">
<g opacity="0.8">
<path d="M2 16.2002V16C2 15.4477 2.44772 15 3 15C3.55229 15 4 15.4477 4 16V16.2002C4 17.0566 4.00035 17.6388 4.03711 18.0889C4.07293 18.5273 4.13809 18.7518 4.21778 18.9082C4.40951 19.2845 4.71555 19.5905 5.0918 19.7822C5.2482 19.8619 5.47272 19.9271 5.91113 19.9629C6.36117 19.9997 6.94342 20 7.79981 20H8C8.55229 20 9 20.4477 9 21C9 21.5523 8.55229 22 8 22H7.79981C6.97632 22 6.29843 22.001 5.74805 21.9561C5.18599 21.9101 4.6689 21.8117 4.1836 21.5645C3.43109 21.181 2.81902 20.5689 2.43555 19.8164C2.18827 19.3311 2.08988 18.814 2.04395 18.252C1.99898 17.7016 2 17.0237 2 16.2002ZM20 16.2002V16C20 15.4477 20.4477 15 21 15C21.5523 15 22 15.4477 22 16V16.2002C22 17.0237 22.001 17.7016 21.9561 18.252C21.9101 18.814 21.8117 19.3311 21.5645 19.8164C21.181 20.5689 20.5689 21.181 19.8164 21.5645C19.3311 21.8117 18.814 21.9101 18.252 21.9561C17.7016 22.001 17.0237 22 16.2002 22H16C15.4477 22 15 21.5523 15 21C15 20.4477 15.4477 20 16 20H16.2002C17.0566 20 17.6388 19.9997 18.0889 19.9629C18.5273 19.9271 18.7518 19.8619 18.9082 19.7822C19.2845 19.5905 19.5905 19.2845 19.7822 18.9082C19.8619 18.7518 19.9271 18.5273 19.9629 18.0889C19.9997 17.6388 20 17.0566 20 16.2002ZM2 8V7.79981C2 6.97632 1.99898 6.29843 2.04395 5.74805C2.08988 5.18599 2.18827 4.6689 2.43555 4.1836C2.81902 3.43109 3.43109 2.81902 4.1836 2.43555C4.6689 2.18827 5.18599 2.08988 5.74805 2.04395C6.29843 1.99898 6.97632 2 7.79981 2H8C8.55229 2 9 2.44772 9 3C9 3.55229 8.55229 4 8 4H7.79981C6.94342 4 6.36117 4.00035 5.91113 4.03711C5.47272 4.07293 5.2482 4.13809 5.0918 4.21778C4.71555 4.40951 4.40951 4.71555 4.21778 5.0918C4.13809 5.2482 4.07293 5.47272 4.03711 5.91113C4.00035 6.36117 4 6.94342 4 7.79981V8C4 8.55229 3.55229 9 3 9C2.44772 9 2 8.55229 2 8ZM20 8V7.79981C20 6.94342 19.9997 6.36117 19.9629 5.91113C19.9271 5.47272 19.8619 5.2482 19.7822 5.0918C19.5905 4.71555 19.2845 4.40951 18.9082 4.21778C18.7518 4.13809 18.5273 4.07293 18.0889 4.03711C17.6388 4.00035 17.0566 4 16.2002 4H16C15.4477 4 15 3.55229 15 3C15 2.44772 15.4477 2 16 2H16.2002C17.0237 2 17.7016 1.99898 18.252 2.04395C18.814 2.08988 19.3311 2.18827 19.8164 2.43555C20.5689 2.81902 21.181 3.43109 21.5645 4.1836C21.8117 4.6689 21.9101 5.18599 21.9561 5.74805C22.001 6.29843 22 6.97632 22 7.79981V8C22 8.55229 21.5523 9 21 9C20.4477 9 20 8.55229 20 8Z" fill="url(#paint0_linear_15697_4341)"/>
<path d="M7.35848 6.00004C8.41952 6.00001 9.0144 6.00005 10.0754 6.00004C11.4339 6.00004 11.4339 7.33132 11.4339 7.33132V9.99388C11.4339 9.99388 11.4339 11.3251 10.0754 11.3252C9.0144 11.3252 7.35848 11.3252 7.35848 11.3252C7.35848 11.3252 5.99996 11.3252 6 9.99388C6.00003 8.95408 6 7.33132 6 7.33132C6 7.33132 6 6.00008 7.35848 6.00004Z" fill="url(#paint1_linear_15697_4341)"/>
<path d="M13.9246 6.00001C14.9856 5.99998 15.5805 6.00002 16.6415 6.00001C18 6.00001 18 7.33129 18 7.33129V9.99385C18 9.99385 18 11.3251 16.6415 11.3251C15.5805 11.3251 13.9246 11.3251 13.9246 11.3251C13.9246 11.3251 12.566 11.3251 12.5661 9.99385C12.5661 8.95405 12.5661 7.33129 12.5661 7.33129C12.5661 7.33129 12.5661 6.00005 13.9246 6.00001Z" fill="url(#paint2_linear_15697_4341)"/>
<path d="M7.3589 12.6749C8.41994 12.6749 9.01482 12.6749 10.0759 12.6749C11.4343 12.6749 11.4343 14.0062 11.4343 14.0062V16.6687C11.4343 16.6687 11.4343 18 10.0759 18C9.01482 18 7.3589 18 7.3589 18C7.3589 18 6.00038 18 6.00042 16.6687C6.00046 15.6289 6.00042 14.0062 6.00042 14.0062C6.00042 14.0062 6.00042 12.6749 7.3589 12.6749Z" fill="url(#paint3_linear_15697_4341)"/>
<path d="M14 14.6718C14 14.7955 14 14.8574 13.9896 14.9088C13.9467 15.1201 13.7782 15.2852 13.5626 15.3272C13.5101 15.3374 13.3716 15.3374 13.2453 15.3374C13.1191 15.3374 13.056 15.3374 13.0035 15.3272C12.7879 15.2852 12.6194 15.1201 12.5765 14.9088C12.5661 14.8574 12.5661 14.7955 12.5661 14.6718V13.3405C12.5661 13.2168 12.5661 13.1549 12.5765 13.1035C12.6194 12.8923 12.7879 12.7271 13.0035 12.6851C13.056 12.6749 13.1191 12.6749 13.2453 12.6749C13.3716 12.6749 13.5101 12.6749 13.5626 12.6851C13.7782 12.7271 13.9467 12.8923 13.9896 13.1035C14 13.1549 14 13.2168 14 13.3405V14.6718Z" fill="url(#paint4_linear_15697_4341)"/>
<path d="M16.6415 16.6687C16.6415 17.404 16.0333 18 15.283 18H13.2453C12.8702 18 12.5661 17.702 12.5661 17.3344C12.5661 16.9667 12.8702 16.6687 13.2453 16.6687H15V13.3405C15 12.9729 15.3179 12.6749 15.8207 12.6749C16.3235 12.6749 16.6415 12.9729 16.6415 13.3405V14.0062H17.3208C17.6959 14.0062 18 14.3042 18 14.6718C18 15.0394 17.6959 15.3374 17.3208 15.3374H16.6415V16.6687Z" fill="url(#paint5_linear_15697_4341)"/>
</g>
<defs>
<linearGradient id="paint0_linear_15697_4341" x1="22" y1="12" x2="2" y2="12" gradientUnits="userSpaceOnUse">
<stop stop-color="#00C2FF"/>
<stop offset="1" stop-color="#009BCC"/>
</linearGradient>
<linearGradient id="paint1_linear_15697_4341" x1="22" y1="12" x2="2" y2="12" gradientUnits="userSpaceOnUse">
<stop stop-color="#00C2FF"/>
<stop offset="1" stop-color="#009BCC"/>
</linearGradient>
<linearGradient id="paint2_linear_15697_4341" x1="22" y1="12" x2="2" y2="12" gradientUnits="userSpaceOnUse">
<stop stop-color="#00C2FF"/>
<stop offset="1" stop-color="#009BCC"/>
</linearGradient>
<linearGradient id="paint3_linear_15697_4341" x1="22" y1="12" x2="2" y2="12" gradientUnits="userSpaceOnUse">
<stop stop-color="#00C2FF"/>
<stop offset="1" stop-color="#009BCC"/>
</linearGradient>
<linearGradient id="paint4_linear_15697_4341" x1="22" y1="12" x2="2" y2="12" gradientUnits="userSpaceOnUse">
<stop stop-color="#00C2FF"/>
<stop offset="1" stop-color="#009BCC"/>
</linearGradient>
<linearGradient id="paint5_linear_15697_4341" x1="22" y1="12" x2="2" y2="12" gradientUnits="userSpaceOnUse">
<stop stop-color="#00C2FF"/>
<stop offset="1" stop-color="#009BCC"/>
</linearGradient>
</defs>
</svg>
