<svg width="24" height="24" viewBox="0 0 24 24" fill="none" xmlns="http://www.w3.org/2000/svg">
<path opacity="0.8" d="M12 2C12.6122 2 13.2111 2.05773 13.793 2.16309C12.6968 3.08028 12 4.45894 12 6C12 7.42161 12.6471 8.63555 13.458 9.68848C14.2591 10.7286 15.3262 11.7403 16.293 12.707C16.6835 13.0976 17.3165 13.0976 17.707 12.707C18.6738 11.7403 19.7409 10.7286 20.542 9.68848C20.8421 9.29874 21.1189 8.88642 21.3496 8.4502C21.7688 9.55354 22 10.7496 22 12C22 17.5228 17.5228 22 12 22C11.8307 22 11.6624 21.9956 11.4951 21.9873C11.4984 21.9545 11.5 21.9213 11.5 21.8877V19.8691L13.8652 17.1104C14.4779 16.3953 14.2883 15.2983 13.4707 14.8311L10.7324 13.2666L8.93945 10.123L8.88184 10.0303C8.59879 9.60839 8.12026 9.358 7.6123 9.36621L7.50293 9.37207L2.23535 9.84082C3.22256 5.35605 7.21861 2 12 2ZM7.5918 10.3682C7.78638 10.3508 7.97335 10.4486 8.07031 10.6182L9.93262 13.8818C9.97683 13.9591 10.0409 14.0231 10.1182 14.0674L12.9746 15.7002C13.247 15.8559 13.3104 16.2206 13.1064 16.459L10.6201 19.3594C10.5426 19.4499 10.5001 19.5654 10.5 19.6846V21.8887C4.97719 21.8886 2 17.5228 2 12C2 12 2.00027 11.4996 2.06445 10.8604L7.5918 10.3682ZM17 2C19.2091 2 21 3.79086 21 6C21 8.20914 19 10 17 12C15 10 13 8.20914 13 6C13 3.79086 14.7909 2 17 2ZM17 4.5C16.3096 4.5 15.75 5.05964 15.75 5.75C15.75 6.44036 16.3096 7 17 7C17.6904 7 18.25 6.44036 18.25 5.75C18.25 5.05964 17.6904 4.5 17 4.5Z" fill="url(#paint0_linear_15697_2451)"/>
<defs>
<linearGradient id="paint0_linear_15697_2451" x1="22" y1="12" x2="2" y2="12" gradientUnits="userSpaceOnUse">
<stop stop-color="#27AE60"/>
<stop offset="1" stop-color="#1E854A"/>
</linearGradient>
</defs>
</svg>
