<svg width="350" height="150" viewBox="0 0 350 150" fill="none" xmlns="http://www.w3.org/2000/svg">
<g clip-path="url(#clip0_15944_10362)">
<g filter="url(#filter0_ii_15944_10362)">
<path d="M0 24C0 10.7452 10.7452 0 24 0H326C339.255 0 350 10.7452 350 24V126C350 139.255 339.255 150 326 150H24C10.7452 150 0 139.255 0 126V24Z" fill="url(#paint0_radial_15944_10362)"/>
</g>
<path d="M31.2742 48.336C28.4742 48.336 26.2902 47.5613 24.7222 46.012C23.1729 44.4627 22.3982 42.2507 22.3982 39.376V28.4H26.9342V39.208C26.9342 42.7173 28.3902 44.472 31.3022 44.472C32.7209 44.472 33.8035 44.052 34.5502 43.212C35.2969 42.3533 35.6702 41.0187 35.6702 39.208V28.4H40.1502V39.376C40.1502 42.2507 39.3662 44.4627 37.7982 46.012C36.2489 47.5613 34.0742 48.336 31.2742 48.336ZM51.0726 48.336C49.5233 48.336 48.0206 48.1307 46.5646 47.72C45.1273 47.2907 43.9699 46.74 43.0926 46.068L44.6326 42.652C45.4726 43.268 46.4713 43.7627 47.6286 44.136C48.7859 44.5093 49.9433 44.696 51.1006 44.696C52.3886 44.696 53.3406 44.5093 53.9566 44.136C54.5726 43.744 54.8806 43.2307 54.8806 42.596C54.8806 42.1293 54.6939 41.7467 54.3206 41.448C53.9659 41.1307 53.4993 40.8787 52.9206 40.692C52.3606 40.5053 51.5953 40.3 50.6246 40.076C49.1313 39.7213 47.9086 39.3667 46.9566 39.012C46.0046 38.6573 45.1833 38.088 44.4926 37.304C43.8206 36.52 43.4846 35.4747 43.4846 34.168C43.4846 33.0293 43.7926 32.0027 44.4086 31.088C45.0246 30.1547 45.9486 29.4173 47.1806 28.876C48.4313 28.3347 49.9526 28.064 51.7446 28.064C52.9953 28.064 54.2179 28.2133 55.4126 28.512C56.6073 28.8107 57.6526 29.24 58.5486 29.8L57.1486 33.244C55.3379 32.2173 53.5273 31.704 51.7166 31.704C50.4473 31.704 49.5046 31.9093 48.8886 32.32C48.2913 32.7307 47.9926 33.272 47.9926 33.944C47.9926 34.616 48.3379 35.12 49.0286 35.456C49.7379 35.7733 50.8113 36.0907 52.2486 36.408C53.7419 36.7627 54.9646 37.1173 55.9166 37.472C56.8686 37.8267 57.6806 38.3867 58.3526 39.152C59.0433 39.9173 59.3886 40.9533 59.3886 42.26C59.3886 43.38 59.0713 44.4067 58.4366 45.34C57.8206 46.2547 56.8873 46.9827 55.6366 47.524C54.3859 48.0653 52.8646 48.336 51.0726 48.336ZM70.4178 28.4H79.3218C81.4498 28.4 83.3258 28.8107 84.9498 29.632C86.5924 30.4347 87.8618 31.5733 88.7578 33.048C89.6724 34.5227 90.1298 36.24 90.1298 38.2C90.1298 40.16 89.6724 41.8773 88.7578 43.352C87.8618 44.8267 86.5924 45.9747 84.9498 46.796C83.3258 47.5987 81.4498 48 79.3218 48H70.4178V28.4ZM79.0978 44.276C81.0578 44.276 82.6164 43.7347 83.7738 42.652C84.9498 41.5507 85.5378 40.0667 85.5378 38.2C85.5378 36.3333 84.9498 34.8587 83.7738 33.776C82.6164 32.6747 81.0578 32.124 79.0978 32.124H74.9538V44.276H79.0978ZM100.411 48.224C98.8239 48.224 97.3959 47.8973 96.1266 47.244C94.8759 46.572 93.8959 45.648 93.1866 44.472C92.4772 43.296 92.1226 41.9613 92.1226 40.468C92.1226 38.9747 92.4772 37.64 93.1866 36.464C93.8959 35.288 94.8759 34.3733 96.1266 33.72C97.3959 33.048 98.8239 32.712 100.411 32.712C101.997 32.712 103.416 33.048 104.667 33.72C105.917 34.3733 106.897 35.288 107.607 36.464C108.316 37.64 108.671 38.9747 108.671 40.468C108.671 41.9613 108.316 43.296 107.607 44.472C106.897 45.648 105.917 46.572 104.667 47.244C103.416 47.8973 101.997 48.224 100.411 48.224ZM100.411 44.64C101.531 44.64 102.445 44.2667 103.155 43.52C103.883 42.7547 104.247 41.7373 104.247 40.468C104.247 39.1987 103.883 38.1907 103.155 37.444C102.445 36.6787 101.531 36.296 100.411 36.296C99.2906 36.296 98.3666 36.6787 97.6386 37.444C96.9106 38.1907 96.5466 39.1987 96.5466 40.468C96.5466 41.7373 96.9106 42.7547 97.6386 43.52C98.3666 44.2667 99.2906 44.64 100.411 44.64ZM111.59 27.224H115.958V48H111.59V27.224ZM120.012 27.224H124.38V48H120.012V27.224ZM134.51 32.712C136.843 32.712 138.635 33.272 139.886 34.392C141.137 35.4933 141.762 37.164 141.762 39.404V48H137.674V46.124C136.853 47.524 135.322 48.224 133.082 48.224C131.925 48.224 130.917 48.028 130.058 47.636C129.218 47.244 128.574 46.7027 128.126 46.012C127.678 45.3213 127.454 44.5373 127.454 43.66C127.454 42.26 127.977 41.1587 129.022 40.356C130.086 39.5533 131.719 39.152 133.922 39.152H137.394C137.394 38.2 137.105 37.472 136.526 36.968C135.947 36.4453 135.079 36.184 133.922 36.184C133.119 36.184 132.326 36.3147 131.542 36.576C130.777 36.8187 130.123 37.1547 129.582 37.584L128.014 34.532C128.835 33.9533 129.815 33.5053 130.954 33.188C132.111 32.8707 133.297 32.712 134.51 32.712ZM134.174 45.284C134.921 45.284 135.583 45.116 136.162 44.78C136.741 44.4253 137.151 43.912 137.394 43.24V41.7H134.398C132.606 41.7 131.71 42.288 131.71 43.464C131.71 44.024 131.925 44.472 132.354 44.808C132.802 45.1253 133.409 45.284 134.174 45.284ZM149.887 34.924C150.41 34.196 151.11 33.6453 151.987 33.272C152.883 32.8987 153.91 32.712 155.067 32.712V36.744C154.582 36.7067 154.255 36.688 154.087 36.688C152.837 36.688 151.857 37.0427 151.147 37.752C150.438 38.4427 150.083 39.488 150.083 40.888V48H145.715V32.936H149.887V34.924Z" fill="white"/>
<g opacity="0.1">
<path d="M234.632 57.9664H286.744C299.198 57.9664 310.178 60.3699 319.683 65.1769C329.297 69.8746 336.726 76.5389 341.97 85.1696C347.323 93.8003 350 103.851 350 115.323C350 126.794 347.323 136.845 341.97 145.475C336.726 154.106 329.297 160.825 319.683 165.632C310.178 170.33 299.198 172.679 286.744 172.679H234.632V57.9664ZM285.433 150.883C296.904 150.883 306.027 147.715 312.8 141.379C319.683 134.933 323.124 126.248 323.124 115.323C323.124 104.398 319.683 95.7668 312.8 89.4303C306.027 82.9846 296.904 79.7617 285.433 79.7617H261.18V150.883H285.433Z" fill="white"/>
<path d="M167.821 174.645C158.754 174.645 149.959 173.444 141.438 171.04C133.025 168.527 126.252 165.304 121.117 161.371L130.13 141.379C135.047 144.984 140.891 147.879 147.665 150.064C154.438 152.249 161.212 153.342 167.985 153.342C175.524 153.342 181.095 152.249 184.701 150.064C188.306 147.77 190.108 144.765 190.108 141.051C190.108 138.32 189.016 136.08 186.831 134.332C184.755 132.475 182.024 131 178.637 129.907C175.36 128.815 170.88 127.613 165.199 126.302C156.459 124.226 149.304 122.151 143.732 120.075C138.16 117.999 133.353 114.667 129.311 110.079C125.378 105.49 123.411 99.3722 123.411 91.7247C123.411 85.0604 125.214 79.0517 128.819 73.6985C132.425 68.236 137.832 63.9206 145.043 60.7524C152.363 57.5841 161.266 56 171.754 56C179.074 56 186.23 56.874 193.222 58.622C200.214 60.37 206.332 62.8827 211.576 66.1602L203.382 86.3168C192.785 80.3081 182.188 77.3037 171.591 77.3037C164.162 77.3037 158.644 78.5055 155.039 80.9089C151.543 83.3124 149.795 86.4807 149.795 90.4137C149.795 94.3467 151.816 97.2964 155.859 99.2629C160.01 101.12 166.292 102.977 174.704 104.835C183.444 106.91 190.6 108.986 196.172 111.062C201.744 113.138 206.496 116.415 210.429 120.894C214.471 125.374 216.492 131.437 216.492 139.084C216.492 145.639 214.635 151.648 210.921 157.111C207.315 162.464 201.853 166.725 194.533 169.893C187.213 173.061 178.309 174.645 167.821 174.645Z" fill="white"/>
<path d="M51.9483 174.645C35.5608 174.645 22.7786 170.111 13.6016 161.044C4.53387 151.976 0 139.03 0 122.205V57.9664H26.5477V121.222C26.5477 141.761 35.0692 152.03 52.1121 152.03C60.4151 152.03 66.7516 149.572 71.1216 144.656C75.4916 139.631 77.6766 131.819 77.6766 121.222V57.9664H103.897V122.205C103.897 139.03 99.3081 151.976 90.1311 161.044C81.0633 170.111 68.3357 174.645 51.9483 174.645Z" fill="white"/>
</g>
</g>
<defs>
<filter id="filter0_ii_15944_10362" x="0" y="-1" width="350" height="152" filterUnits="userSpaceOnUse" color-interpolation-filters="sRGB">
<feFlood flood-opacity="0" result="BackgroundImageFix"/>
<feBlend mode="normal" in="SourceGraphic" in2="BackgroundImageFix" result="shape"/>
<feColorMatrix in="SourceAlpha" type="matrix" values="0 0 0 0 0 0 0 0 0 0 0 0 0 0 0 0 0 0 127 0" result="hardAlpha"/>
<feOffset dy="1"/>
<feGaussianBlur stdDeviation="0.5"/>
<feComposite in2="hardAlpha" operator="arithmetic" k2="-1" k3="1"/>
<feColorMatrix type="matrix" values="0 0 0 0 0.493333 0 0 0 0 0.386667 0 0 0 0 0.973333 0 0 0 1 0"/>
<feBlend mode="normal" in2="shape" result="effect1_innerShadow_15944_10362"/>
<feColorMatrix in="SourceAlpha" type="matrix" values="0 0 0 0 0 0 0 0 0 0 0 0 0 0 0 0 0 0 127 0" result="hardAlpha"/>
<feOffset dy="-2"/>
<feGaussianBlur stdDeviation="0.5"/>
<feComposite in2="hardAlpha" operator="arithmetic" k2="-1" k3="1"/>
<feColorMatrix type="matrix" values="0 0 0 0 0.0533333 0 0 0 0 0 0 0 0 0 0.2 0 0 0 1 0"/>
<feBlend mode="normal" in2="effect1_innerShadow_15944_10362" result="effect2_innerShadow_15944_10362"/>
</filter>
<radialGradient id="paint0_radial_15944_10362" cx="0" cy="0" r="1" gradientTransform="matrix(-224.372 -52.2696 -19.6403 -281.012 350 150)" gradientUnits="userSpaceOnUse">
<stop stop-color="#1C0099"/>
<stop offset="1" stop-color="#090033"/>
</radialGradient>
<clipPath id="clip0_15944_10362">
<path d="M0 24C0 10.7452 10.7452 0 24 0H326C339.255 0 350 10.7452 350 24V126C350 139.255 339.255 150 326 150H24C10.7452 150 0 139.255 0 126V24Z" fill="white"/>
</clipPath>
</defs>
</svg>
