<svg width="36" height="36" viewBox="0 0 36 36" fill="none" xmlns="http://www.w3.org/2000/svg">
<path d="M26.25 18.6929C28.3003 18.6929 29.9633 20.3531 29.9634 22.4004V23.4507C30.2365 23.483 30.5431 23.5489 30.8511 23.7056C31.2955 23.9317 31.6683 24.275 31.9277 24.6973L32.0317 24.8833L32.1489 25.1572C32.2454 25.4278 32.2838 25.6896 32.3027 25.9204C32.3266 26.2125 32.3247 26.5602 32.3247 26.915V27.9946C32.3247 28.3497 32.3266 28.6985 32.3027 28.9907C32.2775 29.2987 32.2182 29.6623 32.0317 30.0278C31.7729 30.535 31.359 30.9471 30.8511 31.2056C30.4849 31.3918 30.1209 31.4514 29.8125 31.4766C29.52 31.5004 29.1718 31.5 28.8164 31.5H23.6851C23.3295 31.5 22.9802 31.5004 22.6875 31.4766C22.3792 31.4513 22.0149 31.3917 21.6489 31.2056C21.1412 30.9472 20.7285 30.5348 20.4697 30.0278C20.2832 29.6623 20.2225 29.2987 20.1973 28.9907C20.1734 28.6985 20.1753 28.3497 20.1753 27.9946V26.915C20.1753 26.5602 20.1734 26.2125 20.1973 25.9204C20.2225 25.6124 20.2831 25.2489 20.4697 24.8833C20.7285 24.3763 21.1412 23.964 21.6489 23.7056C21.9571 23.5488 22.2648 23.483 22.5381 23.4507V22.4004C22.5381 20.3532 24.1998 18.693 26.25 18.6929ZM26.25 21.3896C25.691 21.3898 25.2378 21.8422 25.2378 22.4004V23.4111H27.2622V22.4004C27.2622 21.8421 26.8092 21.3896 26.25 21.3896ZM25.8003 6C28.3205 6 29.5809 5.99952 30.5435 6.48926C31.3902 6.92004 32.0779 7.60816 32.5093 8.45361C32.9997 9.41478 33 10.673 33 13.1895V13.7886C33 16.3049 32.9997 17.5633 32.5093 18.5244C32.156 19.2166 31.628 19.799 30.9844 20.2251C30.1597 18.4372 28.3509 17.1958 26.25 17.1958C23.8654 17.196 21.8557 18.7952 21.2358 20.978H10.1997C7.67967 20.978 6.41911 20.977 5.45654 20.4873C4.61018 20.0565 3.92205 19.3696 3.49072 18.5244C3.00027 17.5633 3 16.3049 3 13.7886V13.1895C3 10.673 3.0003 9.41477 3.49072 8.45361C3.92212 7.60821 4.60991 6.92005 5.45654 6.48926C6.41911 5.99954 7.67967 6 10.1997 6H25.8003ZM10.5 11.6162C9.46464 11.6162 8.62529 12.4545 8.625 13.4883C8.625 14.5223 9.46447 15.3604 10.5 15.3604C11.5355 15.3604 12.375 14.5223 12.375 13.4883C12.3747 12.4545 11.5354 11.6162 10.5 11.6162ZM18 11.6162C16.9646 11.6162 16.1253 12.4545 16.125 13.4883C16.125 14.5223 16.9645 15.3604 18 15.3604C19.0355 15.3604 19.875 14.5223 19.875 13.4883C19.8747 12.4545 19.0354 11.6162 18 11.6162ZM25.5 11.6162C24.4646 11.6162 23.6253 12.4545 23.625 13.4883C23.625 14.5223 24.4645 15.3604 25.5 15.3604C26.5355 15.3604 27.375 14.5223 27.375 13.4883C27.3747 12.4545 26.5354 11.6162 25.5 11.6162Z" fill="url(#paint0_linear_15335_7079)"/>
<defs>
<linearGradient id="paint0_linear_15335_7079" x1="33" y1="18.75" x2="3" y2="18.75" gradientUnits="userSpaceOnUse">
<stop stop-color="#8B70FF"/>
<stop offset="1" stop-color="#380AFF"/>
</linearGradient>
</defs>
</svg>
