<svg width="24" height="24" viewBox="0 0 24 24" fill="none" xmlns="http://www.w3.org/2000/svg">
<path d="M17.5 12.4619C18.8669 12.4619 19.9756 13.5688 19.9756 14.9336V15.6338C20.1577 15.6553 20.3621 15.6992 20.5674 15.8037C20.8637 15.9545 21.1122 16.1833 21.2852 16.4648L21.3545 16.5889L21.4326 16.7715C21.4969 16.9519 21.5225 17.1264 21.5352 17.2803C21.5511 17.475 21.5498 17.7068 21.5498 17.9434V18.6631C21.5498 18.8998 21.5511 19.1323 21.5352 19.3271C21.5183 19.5324 21.4788 19.7749 21.3545 20.0186C21.1819 20.3567 20.906 20.6314 20.5674 20.8037C20.3233 20.9279 20.0806 20.9676 19.875 20.9844C19.68 21.0003 19.4479 21 19.2109 21H15.79C15.553 21 15.3201 21.0003 15.125 20.9844C14.9194 20.9676 14.6766 20.9278 14.4326 20.8037C14.0942 20.6314 13.819 20.3565 13.6465 20.0186C13.5221 19.7749 13.4817 19.5324 13.4648 19.3271C13.4489 19.1323 13.4502 18.8998 13.4502 18.6631V17.9434C13.4502 17.7068 13.4489 17.475 13.4648 17.2803C13.4817 17.0749 13.5221 16.8326 13.6465 16.5889C13.819 16.2509 14.0942 15.976 14.4326 15.8037C14.6381 15.6992 14.8432 15.6553 15.0254 15.6338V14.9336C15.0254 13.5688 16.1332 12.462 17.5 12.4619ZM17.5 14.2598C17.1273 14.2599 16.8252 14.5615 16.8252 14.9336V15.6074H18.1748V14.9336C18.1748 14.5614 17.8728 14.2598 17.5 14.2598ZM17.2002 4C18.8803 4 19.7206 3.99968 20.3623 4.32617C20.9268 4.61336 21.3852 5.07211 21.6729 5.63574C21.9998 6.27652 22 7.11532 22 8.79297V9.19238C22 10.8699 21.9998 11.7088 21.6729 12.3496C21.4373 12.8111 21.0853 13.1993 20.6562 13.4834C20.1065 12.2915 18.9006 11.4639 17.5 11.4639C15.9103 11.464 14.5705 12.5301 14.1572 13.9854H6.7998C5.11978 13.9854 4.2794 13.9847 3.6377 13.6582C3.07345 13.371 2.6147 12.913 2.32715 12.3496C2.00018 11.7088 2 10.8699 2 9.19238V8.79297C2 7.11537 2.0002 6.27651 2.32715 5.63574C2.61475 5.07214 3.07327 4.61337 3.6377 4.32617C4.27941 3.99969 5.11978 4 6.7998 4H17.2002ZM7 7.74414C6.30976 7.74414 5.75019 8.30302 5.75 8.99219C5.75 9.68151 6.30964 10.2402 7 10.2402C7.69036 10.2402 8.25 9.68151 8.25 8.99219C8.24981 8.30302 7.69024 7.74414 7 7.74414ZM12 7.74414C11.3098 7.74414 10.7502 8.30302 10.75 8.99219C10.75 9.68151 11.3096 10.2402 12 10.2402C12.6904 10.2402 13.25 9.68151 13.25 8.99219C13.2498 8.30302 12.6902 7.74414 12 7.74414ZM17 7.74414C16.3098 7.74414 15.7502 8.30302 15.75 8.99219C15.75 9.68151 16.3096 10.2402 17 10.2402C17.6904 10.2402 18.25 9.68151 18.25 8.99219C18.2498 8.30302 17.6902 7.74414 17 7.74414Z" fill="#9FA8B5"/>
</svg>
